<?xml version="1.0" encoding="UTF-8"?>
<svg xmlns="http://www.w3.org/2000/svg" xmlns:xlink="http://www.w3.org/1999/xlink" width="229px" height="70px" viewBox="0 0 228 70" version="1.1">
<defs>
<clipPath id="clip1">
  <path d="M 79.867188 27.164062 L 147.996094 27.164062 L 147.996094 42.886719 L 79.867188 42.886719 Z M 79.867188 27.164062 "/>
</clipPath>
<clipPath id="clip2">
  <path d="M 94.042969 0.148438 L 161.816406 0.148438 L 161.816406 69.882812 L 94.042969 69.882812 Z M 94.042969 0.148438 "/>
</clipPath>
<clipPath id="clip3">
  <path d="M 92.542969 0.148438 L 163.863281 0.148438 L 163.863281 69.882812 L 92.542969 69.882812 Z M 92.542969 0.148438 "/>
</clipPath>
</defs>
<g id="surface1">
<g clip-path="url(#clip1)" clip-rule="nonzero">
<path style=" stroke:none;fill-rule:nonzero;fill:rgb(17.254902%,69.411765%,73.72549%);fill-opacity:1;" d="M 80.539062 42.886719 L 79.875 41.789062 C 80.296875 41.503906 80.648438 41.226562 80.925781 40.929688 C 81.21875 40.648438 81.441406 40.328125 81.609375 39.996094 C 81.773438 39.660156 81.894531 39.285156 81.96875 38.875 C 82.03125 38.453125 82.0625 37.996094 82.0625 37.472656 L 82.0625 28.191406 L 84.683594 28.191406 L 84.683594 36.847656 C 84.683594 37.601562 84.605469 38.292969 84.445312 38.914062 C 84.285156 39.527344 84.042969 40.085938 83.714844 40.574219 C 83.367188 41.066406 82.945312 41.503906 82.425781 41.882812 C 81.894531 42.261719 81.273438 42.597656 80.539062 42.886719 Z M 90.707031 39.316406 C 90.027344 39.316406 89.433594 39.210938 88.929688 39 C 88.429688 38.792969 88.003906 38.507812 87.675781 38.148438 C 87.332031 37.792969 87.085938 37.375 86.917969 36.902344 C 86.757812 36.433594 86.671875 35.941406 86.671875 35.421875 C 86.671875 34.816406 86.777344 34.242188 86.992188 33.71875 C 87.214844 33.191406 87.523438 32.722656 87.921875 32.339844 C 88.320312 31.949219 88.796875 31.640625 89.359375 31.414062 C 89.917969 31.191406 90.546875 31.078125 91.238281 31.078125 C 91.90625 31.078125 92.5 31.183594 92.996094 31.394531 C 93.503906 31.601562 93.929688 31.886719 94.257812 32.238281 C 94.601562 32.597656 94.847656 33.007812 95.019531 33.484375 C 95.1875 33.964844 95.277344 34.46875 95.277344 34.996094 C 95.277344 35.613281 95.160156 36.195312 94.941406 36.71875 C 94.71875 37.238281 94.40625 37.703125 94.003906 38.09375 C 93.605469 38.476562 93.121094 38.777344 92.566406 38.992188 C 92.007812 39.210938 91.382812 39.316406 90.707031 39.316406 Z M 91.023438 37.707031 C 91.253906 37.707031 91.46875 37.660156 91.660156 37.5625 C 91.855469 37.460938 92.023438 37.304688 92.167969 37.109375 C 92.304688 36.910156 92.425781 36.652344 92.503906 36.351562 C 92.589844 36.058594 92.625 35.703125 92.625 35.308594 C 92.625 34.933594 92.589844 34.578125 92.515625 34.269531 C 92.429688 33.941406 92.320312 33.667969 92.179688 33.433594 C 92.03125 33.207031 91.855469 33.023438 91.644531 32.886719 C 91.4375 32.761719 91.199219 32.691406 90.925781 32.691406 C 90.6875 32.691406 90.472656 32.746094 90.277344 32.855469 C 90.078125 32.960938 89.910156 33.113281 89.769531 33.3125 C 89.628906 33.523438 89.519531 33.773438 89.441406 34.074219 C 89.367188 34.378906 89.320312 34.722656 89.320312 35.109375 C 89.320312 35.503906 89.367188 35.863281 89.441406 36.183594 C 89.519531 36.503906 89.632812 36.777344 89.78125 37.003906 C 89.925781 37.230469 90.109375 37.402344 90.316406 37.523438 C 90.523438 37.65625 90.761719 37.707031 91.023438 37.707031 Z M 97.027344 38.828125 L 97.027344 27.164062 L 99.597656 27.164062 L 99.597656 32.339844 C 99.792969 32.175781 99.992188 32.019531 100.207031 31.871094 C 100.414062 31.714844 100.628906 31.578125 100.855469 31.460938 C 101.074219 31.34375 101.3125 31.25 101.550781 31.175781 C 101.792969 31.113281 102.050781 31.078125 102.316406 31.078125 C 102.773438 31.078125 103.1875 31.183594 103.546875 31.398438 C 103.914062 31.609375 104.222656 31.886719 104.480469 32.246094 C 104.730469 32.597656 104.925781 32.996094 105.066406 33.460938 C 105.203125 33.917969 105.277344 34.394531 105.277344 34.890625 C 105.277344 35.503906 105.160156 36.082031 104.945312 36.625 C 104.730469 37.167969 104.414062 37.628906 103.988281 38.035156 C 103.5625 38.429688 103.039062 38.75 102.410156 38.980469 C 101.796875 39.210938 101.085938 39.316406 100.277344 39.316406 C 100.078125 39.316406 99.847656 39.3125 99.597656 39.296875 C 99.339844 39.273438 99.078125 39.253906 98.792969 39.210938 C 98.503906 39.175781 98.21875 39.128906 97.921875 39.066406 C 97.621094 39 97.324219 38.921875 97.027344 38.828125 Z M 99.597656 33.363281 L 99.597656 37.460938 C 99.796875 37.546875 99.996094 37.613281 100.183594 37.65625 C 100.375 37.691406 100.546875 37.707031 100.703125 37.707031 C 101.023438 37.707031 101.304688 37.632812 101.542969 37.492188 C 101.789062 37.34375 101.992188 37.15625 102.148438 36.914062 C 102.304688 36.6875 102.433594 36.414062 102.511719 36.105469 C 102.59375 35.800781 102.632812 35.484375 102.632812 35.15625 C 102.632812 34.832031 102.59375 34.53125 102.515625 34.246094 C 102.4375 33.96875 102.332031 33.726562 102.179688 33.515625 C 102.035156 33.300781 101.851562 33.136719 101.640625 33.019531 C 101.421875 32.890625 101.175781 32.832031 100.890625 32.832031 C 100.714844 32.832031 100.515625 32.871094 100.300781 32.9375 C 100.078125 33.019531 99.84375 33.152344 99.597656 33.363281 Z M 112.878906 39.175781 L 110.265625 39.175781 L 110.265625 28.191406 L 112.878906 28.191406 L 112.878906 32.6875 L 117.363281 32.6875 L 117.363281 28.191406 L 119.976562 28.191406 L 119.976562 39.175781 L 117.363281 39.175781 L 117.363281 34.3125 L 112.878906 34.3125 Z M 122.417969 36.574219 L 122.417969 31.230469 L 124.992188 31.230469 L 124.992188 36.1875 C 124.992188 36.402344 125.011719 36.59375 125.066406 36.761719 C 125.121094 36.941406 125.199219 37.082031 125.300781 37.199219 C 125.398438 37.324219 125.515625 37.414062 125.652344 37.476562 C 125.78125 37.546875 125.933594 37.578125 126.097656 37.578125 C 126.351562 37.578125 126.589844 37.507812 126.820312 37.355469 C 127.050781 37.222656 127.265625 37.050781 127.46875 36.851562 L 127.46875 31.230469 L 130.042969 31.230469 L 130.042969 39.175781 L 127.871094 39.175781 L 127.554688 37.875 C 127.378906 38.039062 127.1875 38.203125 126.980469 38.375 C 126.78125 38.550781 126.5625 38.703125 126.328125 38.847656 C 126.101562 38.984375 125.859375 39.097656 125.613281 39.191406 C 125.367188 39.273438 125.105469 39.316406 124.835938 39.316406 C 124.53125 39.316406 124.238281 39.265625 123.949219 39.148438 C 123.660156 39.035156 123.402344 38.863281 123.179688 38.640625 C 122.953125 38.40625 122.769531 38.125 122.628906 37.777344 C 122.496094 37.433594 122.417969 37.03125 122.417969 36.574219 Z M 132.242188 39.175781 L 132.242188 31.230469 L 134.417969 31.230469 L 134.71875 32.535156 C 134.886719 32.382812 135.082031 32.222656 135.285156 32.054688 C 135.496094 31.886719 135.722656 31.722656 135.972656 31.578125 C 136.214844 31.441406 136.46875 31.3125 136.746094 31.222656 C 137.023438 31.125 137.3125 31.078125 137.613281 31.078125 C 137.972656 31.078125 138.308594 31.144531 138.609375 31.277344 C 138.90625 31.410156 139.164062 31.597656 139.378906 31.835938 C 139.59375 32.070312 139.761719 32.367188 139.875 32.703125 C 139.996094 33.039062 140.054688 33.417969 140.054688 33.820312 L 140.054688 39.175781 L 137.480469 39.175781 L 137.480469 34.195312 C 137.480469 33.972656 137.449219 33.773438 137.386719 33.601562 C 137.324219 33.433594 137.238281 33.296875 137.136719 33.179688 C 137.035156 33.058594 136.90625 32.976562 136.761719 32.917969 C 136.621094 32.863281 136.464844 32.832031 136.300781 32.832031 C 136.03125 32.832031 135.773438 32.898438 135.53125 33.035156 C 135.285156 33.171875 135.050781 33.34375 134.8125 33.542969 L 134.8125 39.175781 Z M 142.8125 36.5625 L 142.8125 32.839844 L 141.238281 32.839844 L 141.40625 31.738281 C 141.667969 31.640625 141.886719 31.554688 142.082031 31.464844 C 142.269531 31.386719 142.4375 31.292969 142.582031 31.191406 C 142.730469 31.097656 142.863281 30.988281 142.972656 30.871094 C 143.082031 30.761719 143.1875 30.625 143.285156 30.46875 C 143.390625 30.308594 143.488281 30.128906 143.59375 29.9375 C 143.699219 29.726562 143.820312 29.496094 143.953125 29.226562 L 145.222656 29.226562 L 145.222656 31.230469 L 147.996094 31.230469 L 147.632812 32.839844 L 145.375 32.839844 L 145.375 36.234375 C 145.375 36.730469 145.507812 37.078125 145.757812 37.277344 C 146.011719 37.476562 146.382812 37.578125 146.855469 37.578125 C 147.035156 37.578125 147.230469 37.5625 147.425781 37.523438 C 147.625 37.496094 147.808594 37.445312 147.984375 37.367188 L 147.984375 38.480469 C 147.601562 38.765625 147.183594 38.980469 146.71875 39.121094 C 146.261719 39.253906 145.796875 39.316406 145.339844 39.316406 C 144.882812 39.316406 144.5 39.257812 144.183594 39.132812 C 143.855469 39 143.605469 38.824219 143.402344 38.585938 C 143.195312 38.339844 143.042969 38.050781 142.949219 37.707031 C 142.863281 37.367188 142.8125 36.992188 142.8125 36.5625 Z M 142.8125 36.5625 "/>
</g>
<g clip-path="url(#clip2)" clip-rule="nonzero">
<path style=" stroke:none;fill-rule:nonzero;fill:rgb(17.254902%,69.411765%,73.72549%);fill-opacity:1;" d="M 127.332031 0.117188 C 146.355469 0.117188 161.78125 15.75 161.78125 35.03125 C 161.78125 54.308594 146.355469 69.941406 127.332031 69.941406 C 111.625 69.941406 98.382812 59.300781 94.226562 44.75 L 94.960938 44.75 C 99.089844 58.90625 112.019531 69.230469 127.332031 69.230469 C 145.96875 69.230469 161.082031 53.914062 161.082031 35.03125 C 161.082031 16.136719 145.96875 0.824219 127.332031 0.824219 C 112.019531 0.824219 99.089844 11.160156 94.960938 25.308594 L 94.226562 25.308594 C 98.382812 10.757812 111.625 0.117188 127.332031 0.117188 Z M 127.332031 0.117188 "/>
</g>
<g clip-path="url(#clip3)" clip-rule="nonzero">
<path style="fill:none;stroke-width:1;stroke-linecap:butt;stroke-linejoin:miter;stroke:rgb(100%,100%,100%);stroke-opacity:1;stroke-miterlimit:4;" d="M 245.831426 0.00321632 C 314.080853 0.00321632 369.409137 55.348555 369.409137 123.610572 C 369.409137 191.85876 314.080853 247.204099 245.831426 247.204099 C 189.480102 247.204099 141.971774 209.532759 127.060605 158.018169 L 129.695285 158.018169 C 144.508354 208.135988 190.895542 244.687145 245.831426 244.687145 C 312.693442 244.687145 366.914599 190.461989 366.914599 123.610572 C 366.914599 56.717668 312.693442 2.506341 245.831426 2.506341 C 190.895542 2.506341 144.508354 39.098987 129.695285 89.189146 L 127.060605 89.189146 C 141.971774 37.674556 189.480102 0.00321632 245.831426 0.00321632 Z M 245.831426 0.00321632 " transform="matrix(0.278734,0,0,0.282459,58.810449,0.116279)"/>
</g>
</g>
</svg>
