<?xml version="1.0" standalone="yes"?>
<svg xmlns="http://www.w3.org/2000/svg" width="586" height="247">
<path style="fill:#ffffff; stroke:none;" d="M0 0L0 247L586 247L586 0L0 0z"/>
<path style="fill:#a0dce0; stroke:none;" d="M69.6667 73.3333L70.3333 73.6667L69.6667 73.3333z"/>
<path style="fill:#69c9cf; stroke:none;" d="M71 73L72 74L71 73z"/>
<path style="fill:#4bbfc5; stroke:none;" d="M72 73L73 74L72 73z"/>
<path style="fill:#11adb2; stroke:none;" d="M73 73.4282C43.3424 77.677 20.1797 100.904 17.1705 131C13.397 168.74 47.2195 205.477 86 200.714C97.9485 199.246 109.231 195.396 119 188.243C170.255 150.714 136.789 64.2897 73 73.4282z"/>
<path style="fill:#4bbfc5; stroke:none;" d="M88.6667 73.3333L89.3333 73.6667L88.6667 73.3333z"/>
<path style="fill:#69c9cf; stroke:none;" d="M90 73L91 74L90 73z"/>
<path style="fill:#a0dce0; stroke:none;" d="M91 73L92 74L91 73M65 74L66 75L65 74z"/>
<path style="fill:#69c9cf; stroke:none;" d="M66 74L67 75L66 74z"/>
<path style="fill:#4bbfc5; stroke:none;" d="M94 74L95 75L94 74z"/>
<path style="fill:#69c9cf; stroke:none;" d="M95 74L96 75L95 74z"/>
<path style="fill:#a0dce0; stroke:none;" d="M96 74L97 75L96 74M61 75L62 76L61 75z"/>
<path style="fill:#69c9cf; stroke:none;" d="M62 75L63 76L62 75z"/>
<path style="fill:#4bbfc5; stroke:none;" d="M98 75L99 76L98 75z"/>
<path style="fill:#a0dce0; stroke:none;" d="M99 75L100 76L99 75M58 76L59 77L58 76z"/>
<path style="fill:#69c9cf; stroke:none;" d="M59 76L60 77L59 76z"/>
<path style="fill:#4bbfc5; stroke:none;" d="M101 76L102 77L101 76z"/>
<path style="fill:#a0dce0; stroke:none;" d="M102 76L103 77L102 76z"/>
<path style="fill:#69c9cf; stroke:none;" d="M56 77L57 78L56 77M104 77L105 78L104 77z"/>
<path style="fill:#a0dce0; stroke:none;" d="M105 77L106 78L105 77z"/>
<path style="fill:#69c9cf; stroke:none;" d="M54 78L55 79L54 78z"/>
<path style="fill:#a0dce0; stroke:none;" d="M107 78L108 79L107 78z"/>
<path style="fill:#69c9cf; stroke:none;" d="M52 79L53 80L52 79M109 79L110 80L109 79M50 80L51 81L50 80M111 80L112 81L111 80z"/>
<path style="fill:#a0dce0; stroke:none;" d="M48 81L49 82L48 81M113 81L114 82L113 81z"/>
<path style="fill:#4bbfc5; stroke:none;" d="M47 82L48 83L47 82M114 82L115 83L114 82z"/>
<path style="fill:#a0dce0; stroke:none;" d="M45 83L46 84L45 83z"/>
<path style="fill:#69c9cf; stroke:none;" d="M116 83L117 84L116 83z"/>
<path style="fill:#4bbfc5; stroke:none;" d="M44 84L45 85L44 84z"/>
<path style="fill:#a0dce0; stroke:none;" d="M42 85L43 86L42 85M119 85L120 86L119 85z"/>
<path style="fill:#69c9cf; stroke:none;" d="M41 86L42 87L41 86M120 86L121 87L120 86z"/>
<path style="fill:#4bbfc5; stroke:none;" d="M40 87L41 88L40 87M121 87L122 88L121 87z"/>
<path style="fill:#a0dce0; stroke:none;" d="M37 89L38 90L37 89M36 90L37 91L36 90z"/>
<path style="fill:#69c9cf; stroke:none;" d="M69 94L70 94L70 91L92 91L92 146C96.4076 135.496 93 117.42 93 106C93 102.096 94.1587 95.899 92.3966 92.3179C89.8212 87.0841 70.7279 88.794 69 94M35 91L36 92L35 91z"/>
<path style="fill:#ffffff; stroke:none;" d="M70 91L70 95L88 95C88 116.158 92.2239 142.403 87.4707 163C85.4313 171.837 78.8025 177.676 70 179L70 183C79.2816 181.749 87.278 177.384 90.4012 168C93.21 159.561 92 149.761 92 141L92 91L70 91z"/>
<path style="fill:#69c9cf; stroke:none;" d="M34 92L35 93L34 92z"/>
<path style="fill:#a0dce0; stroke:none;" d="M33 93L34 94L33 93M32 94L33 95L32 94z"/>
<path style="fill:#4bbfc5; stroke:none;" d="M69 94L70 95L69 94M129 95L130 96L129 95z"/>
<path style="fill:#69c9cf; stroke:none;" d="M130 96L131 97L130 96z"/>
<path style="fill:#4bbfc5; stroke:none;" d="M30 97L31 98L30 97z"/>
<path style="fill:#a0dce0; stroke:none;" d="M131 97L132 98L131 97z"/>
<path style="fill:#69c9cf; stroke:none;" d="M29 98L30 99L29 98z"/>
<path style="fill:#a0dce0; stroke:none;" d="M28 99L29 100L28 99z"/>
<path style="fill:#4bbfc5; stroke:none;" d="M132 99L133 100L132 99z"/>
<path style="fill:#69c9cf; stroke:none;" d="M133 100L134 101L133 100M27 101L28 102L27 101z"/>
<path style="fill:#a0dce0; stroke:none;" d="M134 101L135 102L134 101M26 102L27 103L26 102z"/>
<path style="fill:#69c9cf; stroke:none;" d="M135 103L136 104L135 103M25 104L26 105L25 104z"/>
<path style="fill:#4bbfc5; stroke:none;" d="M136 105L137 106L136 105z"/>
<path style="fill:#a0dce0; stroke:none;" d="M276 105L276 106L286 106L276 105z"/>
<path style="fill:#69c9cf; stroke:none;" d="M24 106L25 107L24 106z"/>
<path style="fill:#a0dce0; stroke:none;" d="M137 106L138 107L137 106z"/>
<path style="fill:#69c9cf; stroke:none;" d="M275 106L275 149L276.028 164.397L285 166L285 165L276 165L276 125L275 106z"/>
<path style="fill:#11adb2; stroke:none;" d="M276 106L276 165L285 165L285 161C287.495 162.865 289.928 164.647 293 165.442C324.235 173.529 315.425 103.905 286 128L286 106L276 106z"/>
<path style="fill:#4bbfc5; stroke:none;" d="M137 107L138 108L137 107z"/>
<path style="fill:#69c9cf; stroke:none;" d="M23 108L24 109L23 108z"/>
<path style="fill:#a0dce0; stroke:none;" d="M138 108L139 109L138 108z"/>
<path style="fill:#4bbfc5; stroke:none;" d="M138 109L139 110L138 109z"/>
<path style="fill:#11adb2; stroke:none;" d="M209 109C209 121.194 212.735 140.633 208.258 151.985C204.468 161.594 193.335 157.644 192 149L182 149C182.793 166.307 206.974 172.798 216.517 157.91C224.773 145.029 219.119 123.346 219 109L209 109z"/>
<path style="fill:#4bbfc5; stroke:none;" d="M219 109L219 117L220 117L219 109z"/>
<path style="fill:#11adb2; stroke:none;" d="M367 109L367 165L377 165L377 141L394 141L394 165L404 165L404 109L394 109L394 133C389.905 133 382.861 134.337 379.318 131.972C374.483 128.746 377 114.191 377 109L367 109z"/>
<path style="fill:#4bbfc5; stroke:none;" d="M377 109L377 132L378 132L377 109z"/>
<path style="fill:#69c9cf; stroke:none;" d="M404 109L404 165L394 165L394 166C396.819 166 401.977 166.915 403.972 164.397C406.301 161.457 405 154.531 405 151C405 139.056 408.607 119.98 404 109M22 110L23 111L22 110z"/>
<path style="fill:#a0dce0; stroke:none;" d="M139 110L140 111L139 110z"/>
<path style="fill:#4bbfc5; stroke:none;" d="M139 111L140 112L139 111z"/>
<path style="fill:#a0dce0; stroke:none;" d="M21 112L22 113L21 112M140 112L141 113L140 112z"/>
<path style="fill:#4bbfc5; stroke:none;" d="M21 113L22 114L21 113z"/>
<path style="fill:#69c9cf; stroke:none;" d="M140 113L141 114L140 113z"/>
<path style="fill:#a0dce0; stroke:none;" d="M515 113L515 123L506 123L506 124C513.531 123.994 518.546 121.45 515 113z"/>
<path style="fill:#4bbfc5; stroke:none;" d="M516 113L516 114L526 114L516 113z"/>
<path style="fill:#a0dce0; stroke:none;" d="M526 113C526.001 125.205 531.227 124 542 124L542 131L527.603 132.028L526 152L527 152L527 132C529.752 132 550.938 131.603 541.397 124.028C538.298 121.568 530.764 123 527 123L526 113z"/>
<path style="fill:#11adb2; stroke:none;" d="M516 114L516 124L506 124L506 131L516 131C516 146.369 512.581 166.899 534 165.961C537.454 165.809 540.691 164.93 544 164L543 157C523.44 159.472 526 146.565 526 131L542 131L542 124L526 124L526 114L516 114z"/>
<path style="fill:#69c9cf; stroke:none;" d="M20 115L21 116L20 115z"/>
<path style="fill:#a0dce0; stroke:none;" d="M141 115L142 116L141 115z"/>
<path style="fill:#4bbfc5; stroke:none;" d="M141 116L142 117L141 116z"/>
<path style="fill:#a0dce0; stroke:none;" d="M19 118L20 119L19 118M142 118L143 119L142 118z"/>
<path style="fill:#4bbfc5; stroke:none;" d="M19 119L20 120L19 119z"/>
<path style="fill:#69c9cf; stroke:none;" d="M142 119L143 120L142 119z"/>
<path style="fill:#a0dce0; stroke:none;" d="M18 121L19 122L18 121z"/>
<path style="fill:#69c9cf; stroke:none;" d="M18 122L19 123L18 122z"/>
<path style="fill:#a0dce0; stroke:none;" d="M143 122L144 123L143 122M245 122L245 123L250 123L245 122M295 122L295 123L299 123L295 122M482 122L482 123L486 123L482 122z"/>
<path style="fill:#4bbfc5; stroke:none;" d="M18 123L19 124L18 123z"/>
<path style="fill:#69c9cf; stroke:none;" d="M143 123L144 124L143 123z"/>
<path style="fill:#a0dce0; stroke:none;" d="M240 123L241 124L240 123z"/>
<path style="fill:#69c9cf; stroke:none;" d="M241 123L242 124L241 123z"/>
<path style="fill:#4bbfc5; stroke:none;" d="M242 123L243 124L242 123z"/>
<path style="fill:#11adb2; stroke:none;" d="M243 123.529C218.314 129.196 225.621 171.567 252 165.471C276.422 159.827 268.618 117.649 243 123.529z"/>
<path style="fill:#4bbfc5; stroke:none;" d="M251 123L252 124L251 123z"/>
<path style="fill:#69c9cf; stroke:none;" d="M252 123L253 124L252 123z"/>
<path style="fill:#a0dce0; stroke:none;" d="M253 123L254 124L253 123M291 123L292 124L291 123z"/>
<path style="fill:#69c9cf; stroke:none;" d="M292 123L293 124L292 123z"/>
<path style="fill:#4bbfc5; stroke:none;" d="M300 123L301 124L300 123z"/>
<path style="fill:#69c9cf; stroke:none;" d="M301 123L302 124L301 123z"/>
<path style="fill:#a0dce0; stroke:none;" d="M302 123L303 124L302 123M414 123L414 124L425 124L414 123M440 123L440 153L441 153L441 124L451 124L451 166L452 135L450.972 124.603L440 123M460 123L460 124L470 124L460 123M477.667 123.333L478.333 123.667L477.667 123.333z"/>
<path style="fill:#4bbfc5; stroke:none;" d="M479 123L480 124L479 123z"/>
<path style="fill:#11adb2; stroke:none;" d="M470 129L470 124L461 124L461 165L471 165C471 157.521 467.812 140.297 472.603 134.279C476.425 129.478 483.979 130.815 486.566 136.044C490.381 143.754 488 156.579 488 165L498 165C498 152.221 502.24 116.597 479 123.804C475.654 124.842 472.896 127.117 470 129z"/>
<path style="fill:#4bbfc5; stroke:none;" d="M487 123L488 124L487 123z"/>
<path style="fill:#69c9cf; stroke:none;" d="M488 123L489 124L488 123z"/>
<path style="fill:#a0dce0; stroke:none;" d="M489 123L490 124L489 123z"/>
<path style="fill:#69c9cf; stroke:none;" d="M515 123L516 124L515 123M526 123L527 124L526 123z"/>
<path style="fill:#a0dce0; stroke:none;" d="M238 124L239 125L238 124z"/>
<path style="fill:#4bbfc5; stroke:none;" d="M239 124L240 125L239 124z"/>
<path style="fill:#69c9cf; stroke:none;" d="M255 124L256 125L255 124z"/>
<path style="fill:#a0dce0; stroke:none;" d="M256 124L257 125L256 124M289 124L290 125L289 124z"/>
<path style="fill:#4bbfc5; stroke:none;" d="M290 124L291 125L290 124M303 124L304 125L303 124z"/>
<path style="fill:#a0dce0; stroke:none;" d="M304 124L305 125L304 124z"/>
<path style="fill:#69c9cf; stroke:none;" d="M414 124L414 152L415 152L414 124z"/>
<path style="fill:#11adb2; stroke:none;" d="M415 124C415 134.498 411.989 150.581 417.417 159.956C422.425 168.604 435.799 167.541 440 159L441 159L442 165L451 165L451 124L441 124C441 132.167 443.28 144.323 440.397 151.995C438.446 157.187 431.605 159.967 427.318 155.682C421.656 150.024 425 131.582 425 124L415 124z"/>
<path style="fill:#69c9cf; stroke:none;" d="M460 124L460 153L461.028 164.397L471 166L471 165L461 165C461 153.304 464.511 134.75 460 124M476 124L477 125L476 124z"/>
<path style="fill:#4bbfc5; stroke:none;" d="M490 124L491 125L490 124z"/>
<path style="fill:#a0dce0; stroke:none;" d="M491 124L492 125L491 124M17.3333 125.667L17.6667 126.333L17.3333 125.667M236 125L237 126L236 125z"/>
<path style="fill:#4bbfc5; stroke:none;" d="M237 125L238 126L237 125M257 125L258 126L257 125M288 125L289 126L288 125z"/>
<path style="fill:#69c9cf; stroke:none;" d="M305 125L306 126L305 125z"/>
<path style="fill:#a0dce0; stroke:none;" d="M470 125L471 129L472 129L470 125M474 125L475 126L474 125z"/>
<path style="fill:#69c9cf; stroke:none;" d="M492 125L493 126L492 125z"/>
<path style="fill:#4bbfc5; stroke:none;" d="M235 126L236 127L235 126z"/>
<path style="fill:#a0dce0; stroke:none;" d="M259 126L260 127L259 126M286 126L287 127L286 126z"/>
<path style="fill:#4bbfc5; stroke:none;" d="M287 126L288 127L287 126M306 126L307 127L306 126z"/>
<path style="fill:#69c9cf; stroke:none;" d="M473 126L474 127L473 126z"/>
<path style="fill:#4bbfc5; stroke:none;" d="M493 126L494 127L493 126z"/>
<path style="fill:#69c9cf; stroke:none;" d="M17 127L18 128L17 127z"/>
<path style="fill:#a0dce0; stroke:none;" d="M144 127L145 128L144 127z"/>
<path style="fill:#4bbfc5; stroke:none;" d="M234 127L235 128L234 127z"/>
<path style="fill:#a0dce0; stroke:none;" d="M260 127L261 128L260 127z"/>
<path style="fill:#4bbfc5; stroke:none;" d="M286 127L287 128L286 127M307 127L308 128L307 127M472 127L473 128L472 127z"/>
<path style="fill:#69c9cf; stroke:none;" d="M494 127L495 128L494 127z"/>
<path style="fill:#4bbfc5; stroke:none;" d="M17 128L18 129L17 128z"/>
<path style="fill:#69c9cf; stroke:none;" d="M144.333 128.667L144.667 129.333L144.333 128.667z"/>
<path style="fill:#4bbfc5; stroke:none;" d="M233 128L234 129L233 128z"/>
<path style="fill:#69c9cf; stroke:none;" d="M261 128L262 129L261 128z"/>
<path style="fill:#4bbfc5; stroke:none;" d="M308 128L309 129L308 128z"/>
<path style="fill:#69c9cf; stroke:none;" d="M470 128L471 129L470 128z"/>
<path style="fill:#a0dce0; stroke:none;" d="M495 128L496 129L495 128z"/>
<path style="fill:#4bbfc5; stroke:none;" d="M232 129L233 130L232 129z"/>
<path style="fill:#a0dce0; stroke:none;" d="M262 129L263 130L262 129M309 129L310 130L309 129z"/>
<path style="fill:#4bbfc5; stroke:none;" d="M495 129L496 130L495 129M144 130L145 131L144 130z"/>
<path style="fill:#69c9cf; stroke:none;" d="M231 130L232 131L231 130z"/>
<path style="fill:#a0dce0; stroke:none;" d="M263 130L264 131L263 130M496 130L497 131L496 130M230 131L231 132L230 131z"/>
<path style="fill:#4bbfc5; stroke:none;" d="M244 131L245 132L244 131z"/>
<path style="fill:#69c9cf; stroke:none;" d="M245 131L246 132L245 131z"/>
<path style="fill:#a0dce0; stroke:none;" d="M246 131L246 132L249 132L246 131z"/>
<path style="fill:#69c9cf; stroke:none;" d="M249 131L250 132L249 131z"/>
<path style="fill:#4bbfc5; stroke:none;" d="M263 131L264 132L263 131M290 131L291 132L290 131z"/>
<path style="fill:#69c9cf; stroke:none;" d="M291 131L292 132L291 131z"/>
<path style="fill:#a0dce0; stroke:none;" d="M292 131L292 132L295 132L292 131z"/>
<path style="fill:#69c9cf; stroke:none;" d="M295 131L296 132L295 131z"/>
<path style="fill:#4bbfc5; stroke:none;" d="M296 131L297 132L296 131z"/>
<path style="fill:#69c9cf; stroke:none;" d="M310 131L311 132L310 131M476.667 131.333L477.333 131.667L476.667 131.333z"/>
<path style="fill:#a0dce0; stroke:none;" d="M478 131L478 132L481 132L478 131z"/>
<path style="fill:#69c9cf; stroke:none;" d="M481 131L482 132L481 131z"/>
<path style="fill:#4bbfc5; stroke:none;" d="M482 131L483 132L482 131z"/>
<path style="fill:#69c9cf; stroke:none;" d="M496 131L497 132L496 131z"/>
<path style="fill:#a0dce0; stroke:none;" d="M506 131L506 132L515 132L515 154C519.206 143.977 517.844 131.009 506 131z"/>
<path style="fill:#69c9cf; stroke:none;" d="M515 131L516 132L515 131M526 131L527 132L526 131z"/>
<path style="fill:#4bbfc5; stroke:none;" d="M230 132L231 133L230 132M242 132L243 133L242 132z"/>
<path style="fill:#a0dce0; stroke:none;" d="M243 132L244 133L243 132z"/>
<path style="fill:#ffffff; stroke:none;" d="M244.044 132.743C234.176 136.692 237.267 161.034 249.956 156.762C260.705 153.142 257.171 127.49 244.044 132.743z"/>
<path style="fill:#a0dce0; stroke:none;" d="M251 132L252 133L251 132M264 132L265 133L264 132z"/>
<path style="fill:#4bbfc5; stroke:none;" d="M288 132L287 134L288 132z"/>
<path style="fill:#a0dce0; stroke:none;" d="M289 132L290 133L289 132z"/>
<path style="fill:#ffffff; stroke:none;" d="M290.109 132.743C281.779 136.276 283.887 161.528 296.945 156.396C306.664 152.577 303.098 127.233 290.109 132.743z"/>
<path style="fill:#a0dce0; stroke:none;" d="M297 132L298 133L297 132z"/>
<path style="fill:#4bbfc5; stroke:none;" d="M298 132L299 133L298 132M378 132L378 133L394 133L378 132M473 132L474 133L473 132z"/>
<path style="fill:#a0dce0; stroke:none;" d="M474 132L475 133L474 132M483 132L484 133L483 132z"/>
<path style="fill:#4bbfc5; stroke:none;" d="M484 132L485 133L484 132z"/>
<path style="fill:#a0dce0; stroke:none;" d="M229 133L230 134L229 133z"/>
<path style="fill:#69c9cf; stroke:none;" d="M241 133L242 134L241 133z"/>
<path style="fill:#a0dce0; stroke:none;" d="M252 133L254 135L252 133z"/>
<path style="fill:#4bbfc5; stroke:none;" d="M253 133L254 134L253 133M264 133L265 134L264 133M299 133L300 134L299 133z"/>
<path style="fill:#a0dce0; stroke:none;" d="M311 133L312 134L311 133z"/>
<path style="fill:#4bbfc5; stroke:none;" d="M472 133L473 134L472 133M485 133L486 134L485 133z"/>
<path style="fill:#a0dce0; stroke:none;" d="M497.333 133.667L497.667 134.333L497.333 133.667z"/>
<path style="fill:#4bbfc5; stroke:none;" d="M229 134L230 135L229 134M240 134L241 135L240 134z"/>
<path style="fill:#a0dce0; stroke:none;" d="M265 134L266 135L265 134z"/>
<path style="fill:#4bbfc5; stroke:none;" d="M300 134L301 135L300 134M311 134L312 135L311 134M471 134L472 135L471 134M486 134L487 135L486 134z"/>
<path style="fill:#a0dce0; stroke:none;" d="M228 135L229 136L228 135z"/>
<path style="fill:#69c9cf; stroke:none;" d="M254 135L255 136L254 135M265 135L266 136L265 135z"/>
<path style="fill:#a0dce0; stroke:none;" d="M286 135L287 136L286 135M300 135L301 136L300 135M471 135L472 136L471 135M486.333 135.667L486.667 136.333L486.333 135.667z"/>
<path style="fill:#69c9cf; stroke:none;" d="M497 135L498 136L497 135M228 136L229 137L228 136M239 136L240 137L239 136z"/>
<path style="fill:#4bbfc5; stroke:none;" d="M301 136L302 137L301 136z"/>
<path style="fill:#a0dce0; stroke:none;" d="M312.333 136.667L312.667 137.333L312.333 136.667z"/>
<path style="fill:#4bbfc5; stroke:none;" d="M497.333 136.667L497.667 137.333L497.333 136.667M228 137L229 138L228 137z"/>
<path style="fill:#69c9cf; stroke:none;" d="M255 137L256 138L255 137z"/>
<path style="fill:#a0dce0; stroke:none;" d="M266 137L267 138L266 137M301.333 137.667L301.667 138.333L301.333 137.667z"/>
<path style="fill:#4bbfc5; stroke:none;" d="M238 138L239 139L238 138z"/>
<path style="fill:#a0dce0; stroke:none;" d="M255 138L256 139L255 138z"/>
<path style="fill:#69c9cf; stroke:none;" d="M266 138L267 139L266 138M312 138L313 139L312 138z"/>
<path style="fill:#4bbfc5; stroke:none;" d="M487 138L487 165L488 165L487 138z"/>
<path style="fill:#a0dce0; stroke:none;" d="M227 139L227 142L228 142L227 139z"/>
<path style="fill:#69c9cf; stroke:none;" d="M238 139L239 140L238 139z"/>
<path style="fill:#4bbfc5; stroke:none;" d="M266.333 139.667L266.667 140.333L266.333 139.667M312 139L313 140L312 139z"/>
<path style="fill:#a0dce0; stroke:none;" d="M238 140L238 143L239 143L238 140z"/>
<path style="fill:#4bbfc5; stroke:none;" d="M302.333 140.667L302.667 141.333L302.333 140.667M256 141L257 142L256 141M377 141L377 165L378 165L377 141z"/>
<path style="fill:#69c9cf; stroke:none;" d="M227 142L227 148L228 148L227 142M256 142L256 147L257 147L256 142M302 142L302 148L303 148L302 142z"/>
<path style="fill:#4bbfc5; stroke:none;" d="M144 143L145 144L144 143z"/>
<path style="fill:#69c9cf; stroke:none;" d="M144 144L145 145L144 144z"/>
<path style="fill:#a0dce0; stroke:none;" d="M267.333 144.667L267.667 145.333L267.333 144.667z"/>
<path style="fill:#4bbfc5; stroke:none;" d="M17 145L18 146L17 145z"/>
<path style="fill:#a0dce0; stroke:none;" d="M144.333 145.667L144.667 146.333L144.333 145.667z"/>
<path style="fill:#69c9cf; stroke:none;" d="M17 146L18 147L17 146z"/>
<path style="fill:#4bbfc5; stroke:none;" d="M92 146L92 161L93 161L92 146z"/>
<path style="fill:#a0dce0; stroke:none;" d="M238 146L238 150L239 150L238 146M17.3333 147.667L17.6667 148.333L17.3333 147.667z"/>
<path style="fill:#4bbfc5; stroke:none;" d="M87 147L87 161L88 161L87 147M256.333 147.667L256.667 148.333L256.333 147.667z"/>
<path style="fill:#a0dce0; stroke:none;" d="M227.333 148.667L227.667 149.333L227.333 148.667z"/>
<path style="fill:#4bbfc5; stroke:none;" d="M302 148L303 149L302 148M143 149L144 150L143 149z"/>
<path style="fill:#69c9cf; stroke:none;" d="M181.333 149.667L181.667 150.333L181.333 149.667z"/>
<path style="fill:#a0dce0; stroke:none;" d="M192 149L192 152L193 152L192 149z"/>
<path style="fill:#4bbfc5; stroke:none;" d="M219.333 149.667L219.667 150.333L219.333 149.667M266 149L267 150L266 149M312 149L313 150L312 149M18 150L19 151L18 150z"/>
<path style="fill:#a0dce0; stroke:none;" d="M143.333 150.667L143.667 151.333L143.333 150.667M208.333 150.667L208.667 151.333L208.333 150.667z"/>
<path style="fill:#69c9cf; stroke:none;" d="M238 150L239 151L238 150z"/>
<path style="fill:#a0dce0; stroke:none;" d="M255 150L256 151L255 150z"/>
<path style="fill:#69c9cf; stroke:none;" d="M266 150L267 151L266 150M312.333 150.667L312.667 151.333L312.333 150.667M18 151L19 152L18 151z"/>
<path style="fill:#a0dce0; stroke:none;" d="M181.333 151.667L181.667 152.333L181.333 151.667z"/>
<path style="fill:#69c9cf; stroke:none;" d="M219 151L220 152L219 151z"/>
<path style="fill:#4bbfc5; stroke:none;" d="M228 151L229 152L228 151z"/>
<path style="fill:#69c9cf; stroke:none;" d="M255 151L256 152L255 151z"/>
<path style="fill:#a0dce0; stroke:none;" d="M266.333 151.667L266.667 152.333L266.333 151.667M301 151L302 152L301 151M425.333 151.667L425.667 152.333L425.333 151.667M18 152L19 153L18 152z"/>
<path style="fill:#69c9cf; stroke:none;" d="M192 152L193 153L192 152z"/>
<path style="fill:#4bbfc5; stroke:none;" d="M208 152L209 153L208 152z"/>
<path style="fill:#a0dce0; stroke:none;" d="M219.333 152.667L219.667 153.333L219.333 152.667z"/>
<path style="fill:#69c9cf; stroke:none;" d="M228 152L229 153L228 152z"/>
<path style="fill:#a0dce0; stroke:none;" d="M239 152L240 153L239 152z"/>
<path style="fill:#4bbfc5; stroke:none;" d="M255 152L256 153L255 152z"/>
<path style="fill:#69c9cf; stroke:none;" d="M301 152L302 153L301 152z"/>
<path style="fill:#a0dce0; stroke:none;" d="M312 152L313 153L312 152M414.333 152.667L414.667 153.333L414.333 152.667z"/>
<path style="fill:#69c9cf; stroke:none;" d="M526 152L527 153L526 152z"/>
<path style="fill:#4bbfc5; stroke:none;" d="M142 153L143 154L142 153M192 153L193 154L192 153z"/>
<path style="fill:#a0dce0; stroke:none;" d="M207 153L208 154L207 153M228 153L229 154L228 153z"/>
<path style="fill:#4bbfc5; stroke:none;" d="M239 153L240 154L239 153z"/>
<path style="fill:#a0dce0; stroke:none;" d="M254 153L255 154L254 153z"/>
<path style="fill:#4bbfc5; stroke:none;" d="M265 153L266 154L265 153z"/>
<path style="fill:#a0dce0; stroke:none;" d="M286 153L287 154L286 153z"/>
<path style="fill:#69c9cf; stroke:none;" d="M425 153L426 154L425 153M440 153L441 154L440 153z"/>
<path style="fill:#4bbfc5; stroke:none;" d="M526 153L527 154L526 153M19 154L20 155L19 154z"/>
<path style="fill:#a0dce0; stroke:none;" d="M142 154L143 155L142 154z"/>
<path style="fill:#4bbfc5; stroke:none;" d="M182 154L183 155L182 154z"/>
<path style="fill:#a0dce0; stroke:none;" d="M193 154L194 155L193 154z"/>
<path style="fill:#4bbfc5; stroke:none;" d="M207 154L208 155L207 154M218 154L219 155L218 154M229 154L230 155L229 154z"/>
<path style="fill:#a0dce0; stroke:none;" d="M240 154L241 155L240 154z"/>
<path style="fill:#4bbfc5; stroke:none;" d="M254 154L255 155L254 154z"/>
<path style="fill:#69c9cf; stroke:none;" d="M265 154L266 155L265 154z"/>
<path style="fill:#4bbfc5; stroke:none;" d="M286 154L287 155L286 154z"/>
<path style="fill:#69c9cf; stroke:none;" d="M300 154L301 155L300 154z"/>
<path style="fill:#4bbfc5; stroke:none;" d="M311 154L312 155L311 154M425 154L426 155L425 154z"/>
<path style="fill:#a0dce0; stroke:none;" d="M439 154L440 155L439 154M527 154L528 155L527 154z"/>
<path style="fill:#69c9cf; stroke:none;" d="M19 155L20 156L19 155M182 155L183 156L182 155z"/>
<path style="fill:#4bbfc5; stroke:none;" d="M206 155L207 156L206 155z"/>
<path style="fill:#a0dce0; stroke:none;" d="M218 155L219 156L218 155z"/>
<path style="fill:#69c9cf; stroke:none;" d="M229 155L230 156L229 155z"/>
<path style="fill:#a0dce0; stroke:none;" d="M241 155L242 156L241 155z"/>
<path style="fill:#4bbfc5; stroke:none;" d="M253 155L254 156L253 155M287 155L288 156L287 155z"/>
<path style="fill:#a0dce0; stroke:none;" d="M299 155L300 156L299 155z"/>
<path style="fill:#69c9cf; stroke:none;" d="M311 155L312 156L311 155z"/>
<path style="fill:#4bbfc5; stroke:none;" d="M415 155L416 156L415 155z"/>
<path style="fill:#a0dce0; stroke:none;" d="M426 155L427 156L426 155M438 155L439 156L438 155z"/>
<path style="fill:#4bbfc5; stroke:none;" d="M516 155L517 156L516 155M527 155L528 156L527 155z"/>
<path style="fill:#a0dce0; stroke:none;" d="M19 156L20 157L19 156M182 156L183 157L182 156M195 156L196 157L195 156M204 156L205 157L204 156z"/>
<path style="fill:#4bbfc5; stroke:none;" d="M205 156L206 157L205 156M217 156L218 157L217 156z"/>
<path style="fill:#a0dce0; stroke:none;" d="M242 156L243 157L242 156M251 156L252 157L251 156z"/>
<path style="fill:#4bbfc5; stroke:none;" d="M252 156L253 157L252 156z"/>
<path style="fill:#69c9cf; stroke:none;" d="M264 156L265 157L264 156z"/>
<path style="fill:#4bbfc5; stroke:none;" d="M288 156L289 157L288 156z"/>
<path style="fill:#a0dce0; stroke:none;" d="M289 156L290 157L289 156M298 156L299 157L298 156M311 156L312 157L311 156z"/>
<path style="fill:#69c9cf; stroke:none;" d="M415 156L416 157L415 156z"/>
<path style="fill:#a0dce0; stroke:none;" d="M427 156L428 157L427 156M437 156L438 157L437 156z"/>
<path style="fill:#69c9cf; stroke:none;" d="M516 156L517 157L516 156z"/>
<path style="fill:#4bbfc5; stroke:none;" d="M528 156L529 157L528 156z"/>
<path style="fill:#a0dce0; stroke:none;" d="M529 156L530 157L529 156M542 156L543 157L542 156z"/>
<path style="fill:#69c9cf; stroke:none;" d="M141 157L142 158L141 157z"/>
<path style="fill:#4bbfc5; stroke:none;" d="M183 157L184 158L183 157M196 157L197 158L196 157z"/>
<path style="fill:#69c9cf; stroke:none;" d="M197 157L198 158L197 157z"/>
<path style="fill:#a0dce0; stroke:none;" d="M198 157L198 158L203 158L198 157z"/>
<path style="fill:#69c9cf; stroke:none;" d="M203 157L204 158L203 157z"/>
<path style="fill:#a0dce0; stroke:none;" d="M217 157L218 158L217 157M230 157L231 158L230 157z"/>
<path style="fill:#4bbfc5; stroke:none;" d="M243 157L244 158L243 157z"/>
<path style="fill:#69c9cf; stroke:none;" d="M244 157L245 158L244 157z"/>
<path style="fill:#a0dce0; stroke:none;" d="M245.667 157.333L246.333 157.667L245.667 157.333M248.667 157.333L249.333 157.667L248.667 157.333z"/>
<path style="fill:#69c9cf; stroke:none;" d="M250 157L251 158L250 157z"/>
<path style="fill:#4bbfc5; stroke:none;" d="M290 157L291 158L290 157z"/>
<path style="fill:#a0dce0; stroke:none;" d="M291 157L291 158L297 158L291 157z"/>
<path style="fill:#4bbfc5; stroke:none;" d="M297 157L298 158L297 157M310 157L311 158L310 157z"/>
<path style="fill:#a0dce0; stroke:none;" d="M415 157L416 158L415 157z"/>
<path style="fill:#4bbfc5; stroke:none;" d="M428 157L429 158L428 157z"/>
<path style="fill:#a0dce0; stroke:none;" d="M429 157L429 158L435 158L429 157z"/>
<path style="fill:#69c9cf; stroke:none;" d="M435 157L436 158L435 157z"/>
<path style="fill:#4bbfc5; stroke:none;" d="M436 157L437 158L436 157z"/>
<path style="fill:#a0dce0; stroke:none;" d="M516 157L517 158L516 157z"/>
<path style="fill:#4bbfc5; stroke:none;" d="M530 157L531 158L530 157z"/>
<path style="fill:#a0dce0; stroke:none;" d="M531 157L531 158L538 158L531 157z"/>
<path style="fill:#69c9cf; stroke:none;" d="M538 157L539 158L538 157z"/>
<path style="fill:#4bbfc5; stroke:none;" d="M539 157L540 158L539 157z"/>
<path style="fill:#69c9cf; stroke:none;" d="M20 158L21 159L20 158z"/>
<path style="fill:#a0dce0; stroke:none;" d="M183 158L184 159L183 158z"/>
<path style="fill:#4bbfc5; stroke:none;" d="M216 158L217 159L216 158M231 158L232 159L231 158z"/>
<path style="fill:#a0dce0; stroke:none;" d="M263 158L264 159L263 158M310 158L311 159L310 158z"/>
<path style="fill:#4bbfc5; stroke:none;" d="M416 158L417 159L416 158z"/>
<path style="fill:#a0dce0; stroke:none;" d="M543 158L543 161L544 161L543 158M20 159L21 160L20 159z"/>
<path style="fill:#4bbfc5; stroke:none;" d="M140 159L141 160L140 159z"/>
<path style="fill:#69c9cf; stroke:none;" d="M184 159L185 160L184 159z"/>
<path style="fill:#4bbfc5; stroke:none;" d="M215 159L216 160L215 159z"/>
<path style="fill:#a0dce0; stroke:none;" d="M231 159L232 160L231 159z"/>
<path style="fill:#69c9cf; stroke:none;" d="M262 159L263 160L262 159M309 159L310 160L309 159z"/>
<path style="fill:#a0dce0; stroke:none;" d="M416 159L417 160L416 159z"/>
<path style="fill:#4bbfc5; stroke:none;" d="M440 159L441 160L440 159z"/>
<path style="fill:#69c9cf; stroke:none;" d="M517 159L518 160L517 159z"/>
<path style="fill:#4bbfc5; stroke:none;" d="M21 160L22 161L21 160z"/>
<path style="fill:#a0dce0; stroke:none;" d="M140 160L141 161L140 160z"/>
<path style="fill:#4bbfc5; stroke:none;" d="M185 160L186 161L185 160z"/>
<path style="fill:#a0dce0; stroke:none;" d="M232 160L233 161L232 160z"/>
<path style="fill:#4bbfc5; stroke:none;" d="M261 160L262 161L261 160M308 160L309 161L308 160M417 160L418 161L417 160z"/>
<path style="fill:#a0dce0; stroke:none;" d="M440 160L441 161L440 160z"/>
<path style="fill:#4bbfc5; stroke:none;" d="M518 160L519 161L518 160z"/>
<path style="fill:#a0dce0; stroke:none;" d="M21 161L22 162L21 161z"/>
<path style="fill:#69c9cf; stroke:none;" d="M87 161L88 162L87 161z"/>
<path style="fill:#4bbfc5; stroke:none;" d="M186 161L187 162L186 161M213 161L214 162L213 161z"/>
<path style="fill:#a0dce0; stroke:none;" d="M214 161L215 162L214 161M233 161L234 162L233 161z"/>
<path style="fill:#4bbfc5; stroke:none;" d="M260 161L261 162L260 161z"/>
<path style="fill:#69c9cf; stroke:none;" d="M285 161L286 162L285 161z"/>
<path style="fill:#a0dce0; stroke:none;" d="M308 161L309 162L308 161M417 161L418 162L417 161M439 161L440 162L439 161z"/>
<path style="fill:#4bbfc5; stroke:none;" d="M441.333 161.667L441.667 162.333L441.333 161.667z"/>
<path style="fill:#a0dce0; stroke:none;" d="M518 161L519 162L518 161z"/>
<path style="fill:#69c9cf; stroke:none;" d="M543 161L544 162L543 161z"/>
<path style="fill:#a0dce0; stroke:none;" d="M87.3333 162.667L87.6667 163.333L87.3333 162.667z"/>
<path style="fill:#69c9cf; stroke:none;" d="M139 162L140 163L139 162z"/>
<path style="fill:#4bbfc5; stroke:none;" d="M187 162L188 163L187 162M212 162L213 163L212 162z"/>
<path style="fill:#a0dce0; stroke:none;" d="M234 162L235 163L234 162z"/>
<path style="fill:#4bbfc5; stroke:none;" d="M235 162L236 163L235 162z"/>
<path style="fill:#69c9cf; stroke:none;" d="M259 162L260 163L259 162z"/>
<path style="fill:#a0dce0; stroke:none;" d="M285 162L285 165L286 165L287 162L285 162M307 162L308 163L307 162M418 162L419 163L418 162z"/>
<path style="fill:#69c9cf; stroke:none;" d="M438 162L439 163L438 162z"/>
<path style="fill:#a0dce0; stroke:none;" d="M519 162L520 163L519 162z"/>
<path style="fill:#4bbfc5; stroke:none;" d="M543 162L544 163L543 162z"/>
<path style="fill:#69c9cf; stroke:none;" d="M22 163L23 164L22 163z"/>
<path style="fill:#a0dce0; stroke:none;" d="M91.3333 163.667L91.6667 164.333L91.3333 163.667M188 163L189 164L188 163z"/>
<path style="fill:#4bbfc5; stroke:none;" d="M189 163L190 164L189 163z"/>
<path style="fill:#a0dce0; stroke:none;" d="M211 163L212 164L211 163z"/>
<path style="fill:#69c9cf; stroke:none;" d="M236 163L237 164L236 163z"/>
<path style="fill:#4bbfc5; stroke:none;" d="M257 163L258 164L257 163z"/>
<path style="fill:#a0dce0; stroke:none;" d="M258 163L259 164L258 163M287 163L288 164L287 163z"/>
<path style="fill:#4bbfc5; stroke:none;" d="M288 163L289 164L288 163M305 163L306 164L305 163z"/>
<path style="fill:#a0dce0; stroke:none;" d="M306 163L307 164L306 163M419 163L420 164L419 163M437 163L438 164L437 163z"/>
<path style="fill:#69c9cf; stroke:none;" d="M441 163C443.332 166.598 447.013 165.997 451 166L451 165L441 163z"/>
<path style="fill:#a0dce0; stroke:none;" d="M520 163L521 164L520 163z"/>
<path style="fill:#4bbfc5; stroke:none;" d="M138 164L139 165L138 164z"/>
<path style="fill:#69c9cf; stroke:none;" d="M190 164L191 165L190 164z"/>
<path style="fill:#4bbfc5; stroke:none;" d="M191 164L192 165L191 164M208 164L209 165L208 164z"/>
<path style="fill:#a0dce0; stroke:none;" d="M209 164L210 165L209 164M237 164L238 165L237 164z"/>
<path style="fill:#4bbfc5; stroke:none;" d="M238 164L239 165L238 164M255 164L256 165L255 164z"/>
<path style="fill:#a0dce0; stroke:none;" d="M256 164L257 165L256 164z"/>
<path style="fill:#69c9cf; stroke:none;" d="M289 164L290 165L289 164z"/>
<path style="fill:#a0dce0; stroke:none;" d="M304 164L305 165L304 164z"/>
<path style="fill:#4bbfc5; stroke:none;" d="M421 164L422 165L421 164M435 164L436 165L435 164z"/>
<path style="fill:#a0dce0; stroke:none;" d="M436 164L437 165L436 164z"/>
<path style="fill:#69c9cf; stroke:none;" d="M522 164L523 165L522 164M542 164L543 165L542 164z"/>
<path style="fill:#a0dce0; stroke:none;" d="M543 164L544 165L543 164M23 165L24 166L23 165z"/>
<path style="fill:#4bbfc5; stroke:none;" d="M86 165L87 166L86 165z"/>
<path style="fill:#69c9cf; stroke:none;" d="M91 165L92 166L91 165z"/>
<path style="fill:#a0dce0; stroke:none;" d="M138 165L139 166L138 165M192 165L193 166L192 165z"/>
<path style="fill:#69c9cf; stroke:none;" d="M193 165L194 166L193 165z"/>
<path style="fill:#4bbfc5; stroke:none;" d="M194 165L195 166L194 165M205 165L206 166L205 165z"/>
<path style="fill:#69c9cf; stroke:none;" d="M206 165L207 166L206 165z"/>
<path style="fill:#a0dce0; stroke:none;" d="M207 165L208 166L207 165M239 165L240 166L239 165z"/>
<path style="fill:#69c9cf; stroke:none;" d="M240 165L241 166L240 165z"/>
<path style="fill:#4bbfc5; stroke:none;" d="M241 165L242 166L241 165M252 165L253 166L252 165z"/>
<path style="fill:#69c9cf; stroke:none;" d="M253 165L254 166L253 165z"/>
<path style="fill:#a0dce0; stroke:none;" d="M254 165L255 166L254 165M275 165L276 166L275 165M290 165L291 166L290 165z"/>
<path style="fill:#69c9cf; stroke:none;" d="M291 165L292 166L291 165z"/>
<path style="fill:#4bbfc5; stroke:none;" d="M292 165L293 166L292 165M301 165L302 166L301 165z"/>
<path style="fill:#a0dce0; stroke:none;" d="M302 165L303 166L302 165z"/>
<path style="fill:#69c9cf; stroke:none;" d="M367 165L367 166L378 166L367 165z"/>
<path style="fill:#a0dce0; stroke:none;" d="M404 165L405 166L404 165M422 165L423 166L422 165z"/>
<path style="fill:#69c9cf; stroke:none;" d="M423 165L424 166L423 165z"/>
<path style="fill:#4bbfc5; stroke:none;" d="M424 165L425 166L424 165z"/>
<path style="fill:#69c9cf; stroke:none;" d="M433 165L434 166L433 165z"/>
<path style="fill:#a0dce0; stroke:none;" d="M434 165L435 166L434 165M441 165L442 166L441 165M460 165L461 166L460 165z"/>
<path style="fill:#69c9cf; stroke:none;" d="M487 165L487 166L498 166L487 165z"/>
<path style="fill:#a0dce0; stroke:none;" d="M523 165L524 166L523 165z"/>
<path style="fill:#69c9cf; stroke:none;" d="M524 165L525 166L524 165z"/>
<path style="fill:#4bbfc5; stroke:none;" d="M525 165L526 166L525 165M538 165L539 166L538 165z"/>
<path style="fill:#69c9cf; stroke:none;" d="M539 165L540 166L539 165z"/>
<path style="fill:#a0dce0; stroke:none;" d="M540 165L541 166L540 165M86 166L87 167L86 166z"/>
<path style="fill:#4bbfc5; stroke:none;" d="M91 166L92 167L91 166M137 166L138 167L137 166z"/>
<path style="fill:#a0dce0; stroke:none;" d="M196 166L196 167L204 167L196 166M243 166L243 167L251 167L243 166M293 166L293 167L300 167L293 166M425 166L425 167L432 167L425 166M527 166L527 167L536 167L527 166M24 167L25 168L24 167z"/>
<path style="fill:#4bbfc5; stroke:none;" d="M25 168L26 169L25 168z"/>
<path style="fill:#69c9cf; stroke:none;" d="M85 168L86 169L85 168M90 168L91 169L90 168M136 168L137 169L136 168z"/>
<path style="fill:#a0dce0; stroke:none;" d="M25 169L26 170L25 169z"/>
<path style="fill:#69c9cf; stroke:none;" d="M26 170L27 171L26 170M84 170L85 171L84 170z"/>
<path style="fill:#a0dce0; stroke:none;" d="M89 170L90 171L89 170z"/>
<path style="fill:#69c9cf; stroke:none;" d="M135 170L136 171L135 170z"/>
<path style="fill:#a0dce0; stroke:none;" d="M27 172L28 173L27 172z"/>
<path style="fill:#69c9cf; stroke:none;" d="M88 172L89 173L88 172z"/>
<path style="fill:#a0dce0; stroke:none;" d="M134 172L135 173L134 172z"/>
<path style="fill:#69c9cf; stroke:none;" d="M28 173L29 174L28 173z"/>
<path style="fill:#a0dce0; stroke:none;" d="M82 173L83 174L82 173z"/>
<path style="fill:#69c9cf; stroke:none;" d="M133 173L134 174L133 173z"/>
<path style="fill:#a0dce0; stroke:none;" d="M81 174L82 175L81 174z"/>
<path style="fill:#4bbfc5; stroke:none;" d="M79 175L80 176L79 175z"/>
<path style="fill:#69c9cf; stroke:none;" d="M86 175L87 176L86 175z"/>
<path style="fill:#a0dce0; stroke:none;" d="M30 176L31 177L30 176z"/>
<path style="fill:#4bbfc5; stroke:none;" d="M77 176L78 177L77 176z"/>
<path style="fill:#a0dce0; stroke:none;" d="M78 176L79 177L78 176z"/>
<path style="fill:#69c9cf; stroke:none;" d="M85 176L86 177L85 176z"/>
<path style="fill:#a0dce0; stroke:none;" d="M131 176L132 177L131 176z"/>
<path style="fill:#69c9cf; stroke:none;" d="M31 177L32 178L31 177z"/>
<path style="fill:#4bbfc5; stroke:none;" d="M75 177L76 178L75 177z"/>
<path style="fill:#a0dce0; stroke:none;" d="M76 177L77 178L76 177M84 177L85 178L84 177z"/>
<path style="fill:#69c9cf; stroke:none;" d="M130 177L131 178L130 177z"/>
<path style="fill:#4bbfc5; stroke:none;" d="M32 178L33 179L32 178M70 178L71 179L70 178z"/>
<path style="fill:#69c9cf; stroke:none;" d="M71 178L72 179L71 178z"/>
<path style="fill:#a0dce0; stroke:none;" d="M72.6667 178.333L73.3333 178.667L72.6667 178.333z"/>
<path style="fill:#69c9cf; stroke:none;" d="M83 178L84 179L83 178z"/>
<path style="fill:#4bbfc5; stroke:none;" d="M129 178L130 179L129 178z"/>
<path style="fill:#69c9cf; stroke:none;" d="M69 179L69 183L70 183L69 179z"/>
<path style="fill:#a0dce0; stroke:none;" d="M81 179L82 180L81 179z"/>
<path style="fill:#4bbfc5; stroke:none;" d="M82 179L83 180L82 179M128 179L129 180L128 179z"/>
<path style="fill:#69c9cf; stroke:none;" d="M80 180L81 181L80 180z"/>
<path style="fill:#a0dce0; stroke:none;" d="M77 181L78 182L77 181z"/>
<path style="fill:#4bbfc5; stroke:none;" d="M78 181L79 182L78 181z"/>
<path style="fill:#a0dce0; stroke:none;" d="M73.6667 182.333L74.3333 182.667L73.6667 182.333z"/>
<path style="fill:#4bbfc5; stroke:none;" d="M75 182L76 183L75 182M124 183L125 184L124 183M123 184L124 185L123 184z"/>
<path style="fill:#69c9cf; stroke:none;" d="M122 185L123 186L122 185z"/>
<path style="fill:#4bbfc5; stroke:none;" d="M40 186L41 187L40 186z"/>
<path style="fill:#a0dce0; stroke:none;" d="M121 186L122 187L121 186z"/>
<path style="fill:#69c9cf; stroke:none;" d="M41 187L42 188L41 187z"/>
<path style="fill:#a0dce0; stroke:none;" d="M42 188L43 189L42 188z"/>
<path style="fill:#4bbfc5; stroke:none;" d="M118 188L119 189L118 188M44 189L45 190L44 189z"/>
<path style="fill:#a0dce0; stroke:none;" d="M117 189L118 190L117 189M45 190L46 191L45 190z"/>
<path style="fill:#4bbfc5; stroke:none;" d="M115 190L116 191L115 190z"/>
<path style="fill:#69c9cf; stroke:none;" d="M47 191L48 192L47 191z"/>
<path style="fill:#a0dce0; stroke:none;" d="M114 191L115 192L114 191M48 192L49 193L48 192z"/>
<path style="fill:#69c9cf; stroke:none;" d="M112 192L113 193L112 192z"/>
<path style="fill:#a0dce0; stroke:none;" d="M50 193L51 194L50 193z"/>
<path style="fill:#69c9cf; stroke:none;" d="M110 193L111 194L110 193z"/>
<path style="fill:#a0dce0; stroke:none;" d="M52 194L53 195L52 194z"/>
<path style="fill:#4bbfc5; stroke:none;" d="M108 194L109 195L108 194z"/>
<path style="fill:#a0dce0; stroke:none;" d="M109 194L110 195L109 194M54 195L55 196L54 195z"/>
<path style="fill:#4bbfc5; stroke:none;" d="M55 195L56 196L55 195z"/>
<path style="fill:#69c9cf; stroke:none;" d="M106 195L107 196L106 195z"/>
<path style="fill:#a0dce0; stroke:none;" d="M107 195L108 196L107 195z"/>
<path style="fill:#69c9cf; stroke:none;" d="M57 196L58 197L57 196M104 196L105 197L104 196z"/>
<path style="fill:#a0dce0; stroke:none;" d="M59 197L60 198L59 197z"/>
<path style="fill:#69c9cf; stroke:none;" d="M60 197L61 198L60 197M101 197L102 198L101 197z"/>
<path style="fill:#a0dce0; stroke:none;" d="M102 197L103 198L102 197M62 198L63 199L62 198z"/>
<path style="fill:#69c9cf; stroke:none;" d="M63 198L64 199L63 198z"/>
<path style="fill:#4bbfc5; stroke:none;" d="M64 198L65 199L64 198M97 198L98 199L97 198z"/>
<path style="fill:#69c9cf; stroke:none;" d="M98 198L99 199L98 198z"/>
<path style="fill:#a0dce0; stroke:none;" d="M99 198L100 199L99 198M66 199L67 200L66 199z"/>
<path style="fill:#69c9cf; stroke:none;" d="M67 199L68 200L67 199z"/>
<path style="fill:#4bbfc5; stroke:none;" d="M68 199L69 200L68 199M93 199L94 200L93 199z"/>
<path style="fill:#69c9cf; stroke:none;" d="M94 199L95 200L94 199z"/>
<path style="fill:#a0dce0; stroke:none;" d="M95 199L96 200L95 199M71 200L72 201L71 200z"/>
<path style="fill:#69c9cf; stroke:none;" d="M72 200L73 201L72 200z"/>
<path style="fill:#4bbfc5; stroke:none;" d="M73.6667 200.333L74.3333 200.667L73.6667 200.333M87 200L88 201L87 200z"/>
<path style="fill:#69c9cf; stroke:none;" d="M88.6667 200.333L89.3333 200.667L88.6667 200.333z"/>
<path style="fill:#a0dce0; stroke:none;" d="M90 200L91 201L90 200z"/>
</svg>
