<?xml version="1.0" encoding="utf-8"?>
<svg width="164" height="50" fill="none" xmlns="http://www.w3.org/2000/svg">
  <rect width="50" height="50" rx="10" fill="#2CB1BC" transform="matrix(0.9999999999999999, 0, 0, 0.9999999999999999, -2.842170943040401e-14, 0)"/>
  <path d="M26.0039 9.5625H31.8633V29.25C31.8633 31.0599 31.4596 32.6615 30.6523 34.0547C29.8581 35.4349 28.7318 36.5026 27.2734 37.2578C25.8151 38.013 24.168 38.3906 22.332 38.3906C19.3242 38.3906 16.9805 37.6289 15.3008 36.1055C13.6211 34.569 12.7812 32.401 12.7812 29.6016H18.6797C18.6797 30.9948 18.9727 32.0234 19.5586 32.6875C20.1445 33.3516 21.069 33.6836 22.332 33.6836C23.4518 33.6836 24.3438 33.2995 25.0078 32.5312C25.6719 31.763 26.0039 30.6693 26.0039 29.25V9.5625Z" fill="white" transform="matrix(0.9999999999999999, 0, 0, 0.9999999999999999, -2.842170943040401e-14, 0)"/>
  <text style="white-space: pre; fill: rgb(51, 51, 51); font-family: Arial, sans-serif; font-size: 3.4px;" x="65.955" y="12.033" transform="matrix(6.582262992858886, 0, 0, 7.025640964508057, -368.1781365897973, -53.98131260247992)"> </text>
  <text style="fill: rgb(44, 177, 188); font-family: &quot;Bruno Ace SC&quot;; font-size: 1.94529px; font-weight: 700; line-height: 2.95684px; white-space: pre;" transform="matrix(10.173847198486326, 0, 0, 10.281249999999998, -751.8706777076522, -62.641705492760295)" x="79.886" y="8.959">Job Hunt</text>
</svg>