<?xml version="1.0" standalone="yes"?>
<svg xmlns="http://www.w3.org/2000/svg" width="164" height="50">
<path style="fill:#ffffff; stroke:none;" d="M0 0L0 243L504 243L504 0L0 0z"/>
<path style="fill:#caecf0; stroke:none;" d="M73 62L74 63L73 62z"/>
<path style="fill:#9bdce0; stroke:none;" d="M74 62L75 63L74 62z"/>
<path style="fill:#63c7ce; stroke:none;" d="M75.6667 62.3333L76.3333 62.6667L75.6667 62.3333z"/>
<path style="fill:#0dadb0; stroke:none;" d="M77 62.4282C67.1917 63.8334 58.3275 66.925 50 72.3449C-7.91476 110.039 25.4227 204.562 95 194.572C104.732 193.174 113.749 190.026 122 184.655C179.746 147.071 146.318 52.4977 77 62.4282z"/>
<path style="fill:#63c7ce; stroke:none;" d="M95.6667 62.3333L96.3333 62.6667L95.6667 62.3333z"/>
<path style="fill:#9bdce0; stroke:none;" d="M97 62L98 63L97 62M69 63L70 64L69 63z"/>
<path style="fill:#63c7ce; stroke:none;" d="M70 63L71 64L70 63M100 63L101 64L100 63z"/>
<path style="fill:#9bdce0; stroke:none;" d="M101 63L102 64L101 63z"/>
<path style="fill:#caecf0; stroke:none;" d="M102 63L103 64L102 63M65 64L66 65L65 64z"/>
<path style="fill:#9bdce0; stroke:none;" d="M66 64L67 65L66 64z"/>
<path style="fill:#63c7ce; stroke:none;" d="M104 64L105 65L104 64z"/>
<path style="fill:#caecf0; stroke:none;" d="M105 64L106 65L105 64z"/>
<path style="fill:#9bdce0; stroke:none;" d="M62 65L63 66L62 65z"/>
<path style="fill:#63c7ce; stroke:none;" d="M63 65L64 66L63 65M107 65L108 66L107 65z"/>
<path style="fill:#9bdce0; stroke:none;" d="M108 65L109 66L108 65z"/>
<path style="fill:#63c7ce; stroke:none;" d="M60 66L61 67L60 66M110 66L111 67L110 66z"/>
<path style="fill:#caecf0; stroke:none;" d="M111 66L112 67L111 66z"/>
<path style="fill:#63c7ce; stroke:none;" d="M58 67L59 68L58 67M112 67L113 68L112 67z"/>
<path style="fill:#caecf0; stroke:none;" d="M113 67L114 68L113 67z"/>
<path style="fill:#63c7ce; stroke:none;" d="M56 68L57 69L56 68z"/>
<path style="fill:#9bdce0; stroke:none;" d="M115 68L116 69L115 68M54 69L55 70L54 69M117 69L118 70L117 69M52 70L53 71L52 70M119 70L120 71L119 70z"/>
<path style="fill:#caecf0; stroke:none;" d="M50 71L51 72L50 71z"/>
<path style="fill:#63c7ce; stroke:none;" d="M51 71L52 72L51 71M120 71L121 72L120 71z"/>
<path style="fill:#9bdce0; stroke:none;" d="M49 72L50 73L49 72M122 72L123 73L122 72z"/>
<path style="fill:#63c7ce; stroke:none;" d="M48 73L49 74L48 73M123 73L124 74L123 73z"/>
<path style="fill:#caecf0; stroke:none;" d="M124 73L125 74L124 73z"/>
<path style="fill:#9bdce0; stroke:none;" d="M46 74L47 75L46 74z"/>
<path style="fill:#63c7ce; stroke:none;" d="M125 74L126 75L125 74M45 75L46 76L45 75M126 75L127 76L126 75z"/>
<path style="fill:#caecf0; stroke:none;" d="M43 76L44 77L43 76M42 77L43 78L42 77M129 77L130 78L129 77z"/>
<path style="fill:#9bdce0; stroke:none;" d="M41 78L42 79L41 78z"/>
<path style="fill:#caecf0; stroke:none;" d="M130 78L131 79L130 78z"/>
<path style="fill:#9bdce0; stroke:none;" d="M40 79L41 80L40 79M131 79L132 80L131 79z"/>
<path style="fill:#63c7ce; stroke:none;" d="M39 80L40 81L39 80z"/>
<path style="fill:#caecf0; stroke:none;" d="M74 80L74 81L98 81L74 80z"/>
<path style="fill:#63c7ce; stroke:none;" d="M132 80L133 81L132 80M38 81L39 82L38 81z"/>
<path style="fill:#ffffff; stroke:none;" d="M74 81L74 85L93 85L93 134L91.892 158L74 176C84.7898 175.77 93.9248 170.032 96.4707 159C102.059 134.786 98 105.765 98 81L74 81z"/>
<path style="fill:#9bdce0; stroke:none;" d="M133 81L134 82L133 81z"/>
<path style="fill:#63c7ce; stroke:none;" d="M37 82L38 83L37 82z"/>
<path style="fill:#9bdce0; stroke:none;" d="M134 82L135 83L134 82z"/>
<path style="fill:#63c7ce; stroke:none;" d="M36 83L37 84L36 83z"/>
<path style="fill:#caecf0; stroke:none;" d="M135 83L136 84L135 83z"/>
<path style="fill:#9bdce0; stroke:none;" d="M35 84L36 85L35 84z"/>
<path style="fill:#caecf0; stroke:none;" d="M136 84L137 85L136 84z"/>
<path style="fill:#9bdce0; stroke:none;" d="M34 85L35 86L34 85z"/>
<path style="fill:#caecf0; stroke:none;" d="M33 86L34 87L33 86M32 87L33 88L32 87z"/>
<path style="fill:#63c7ce; stroke:none;" d="M138 87L139 88L138 87z"/>
<path style="fill:#9bdce0; stroke:none;" d="M139 88L140 89L139 88z"/>
<path style="fill:#63c7ce; stroke:none;" d="M31 89L32 90L31 89z"/>
<path style="fill:#caecf0; stroke:none;" d="M30 90L31 91L30 90z"/>
<path style="fill:#63c7ce; stroke:none;" d="M140 90L141 91L140 90z"/>
<path style="fill:#9bdce0; stroke:none;" d="M141 91L142 92L141 91M29 92L30 93L29 92z"/>
<path style="fill:#caecf0; stroke:none;" d="M28 93L29 94L28 93z"/>
<path style="fill:#63c7ce; stroke:none;" d="M142 93L143 94L142 93M28 94L29 95L28 94z"/>
<path style="fill:#9bdce0; stroke:none;" d="M143 94L144 95L143 94M27 95L28 96L27 95z"/>
<path style="fill:#63c7ce; stroke:none;" d="M144 96L145 97L144 96z"/>
<path style="fill:#9bdce0; stroke:none;" d="M26 97L27 98L26 97z"/>
<path style="fill:#63c7ce; stroke:none;" d="M145 98L146 99L145 98z"/>
<path style="fill:#caecf0; stroke:none;" d="M25 99L26 100L25 99M146 99L147 100L146 99z"/>
<path style="fill:#63c7ce; stroke:none;" d="M25 100L26 101L25 100M146 100L147 101L146 100z"/>
<path style="fill:#caecf0; stroke:none;" d="M24 101L25 102L24 101M147 101L148 102L147 101z"/>
<path style="fill:#63c7ce; stroke:none;" d="M24 102L25 103L24 102M147 102L148 103L147 102z"/>
<path style="fill:#caecf0; stroke:none;" d="M23 103L24 104L23 103M251 103L252 104L251 103z"/>
<path style="fill:#9bdce0; stroke:none;" d="M251 154L252 154L252 104L261 104C258.296 102.866 253.239 101.994 251.603 105.318C249.732 109.122 251 115.845 251 120L251 154z"/>
<path style="fill:#63c7ce; stroke:none;" d="M23 104L24 105L23 104z"/>
<path style="fill:#9bdce0; stroke:none;" d="M148 104L149 105L148 104z"/>
<path style="fill:#0dadb0; stroke:none;" d="M252 104L252 153C255.511 153 259.146 153.987 260 150C289.775 170.931 289.596 101.194 260 122L260 104L252 104z"/>
<path style="fill:#63c7ce; stroke:none;" d="M260 104L260 122L261 122L260 104z"/>
<path style="fill:#caecf0; stroke:none;" d="M22 106L23 107L22 106M195 106L195 141L196 141L195 106z"/>
<path style="fill:#63c7ce; stroke:none;" d="M196 106L196 107L205 107L196 106z"/>
<path style="fill:#caecf0; stroke:none;" d="M205 106L205 141L206 141L205 106z"/>
<path style="fill:#9bdce0; stroke:none;" d="M328 106L329 107L328 106z"/>
<path style="fill:#63c7ce; stroke:none;" d="M338 133L337 133L337 153L329 153L329 107L337 107L337 126C338.666 122.03 339.362 112.311 337.397 108.318C335.893 105.263 330.107 105.263 328.603 108.318C324.702 116.247 328 133.167 328 142C328 144.91 327.088 149.949 329.028 152.397C330.908 154.77 336.045 154.428 337.397 151.682C339.709 146.983 338 138.182 338 133z"/>
<path style="fill:#9bdce0; stroke:none;" d="M337 106L338 107L337 106z"/>
<path style="fill:#caecf0; stroke:none;" d="M350 106L350 125L351 125L350 106z"/>
<path style="fill:#63c7ce; stroke:none;" d="M351 106L351 107L360 107L351 106z"/>
<path style="fill:#9bdce0; stroke:none;" d="M22 107L23 108L22 107M149 107L150 108L149 107z"/>
<path style="fill:#0dadb0; stroke:none;" d="M196 107C196 117.345 198.379 131.023 195.566 140.985C193.173 149.46 184.014 147.091 182 140L173 140C175.096 153.925 194.363 160.03 202.467 146.907C208.574 137.017 205 118.274 205 107L196 107M329 107L329 153L337 153L337 133L351 133L351 153L360 153L360 107L351 107L351 126L337 126L337 107L329 107z"/>
<path style="fill:#63c7ce; stroke:none;" d="M149 108L150 109L149 108z"/>
<path style="fill:#caecf0; stroke:none;" d="M21 109L22 110L21 109M452 118L453 118L453 110L462 110C454.566 106.882 452.024 111.199 452 118z"/>
<path style="fill:#9bdce0; stroke:none;" d="M21 110L22 111L21 110M150 110L151 111L150 110z"/>
<path style="fill:#0dadb0; stroke:none;" d="M453 110L453 119L445 119L445 125L453 125C453 132.296 450.891 143.662 455.703 149.786C461.241 156.835 475.671 156.024 476 146C459.942 149.823 462 136.768 462 125L475 125L475 119L462 119L462 110L453 110z"/>
<path style="fill:#63c7ce; stroke:none;" d="M21 111L22 112L21 111M150 111L151 112L150 111z"/>
<path style="fill:#caecf0; stroke:none;" d="M20 113L21 114L20 113M151.333 113.667L151.667 114.333L151.333 113.667z"/>
<path style="fill:#63c7ce; stroke:none;" d="M20.3333 114.667L20.6667 115.333L20.3333 114.667M151.333 115.667L151.667 116.333L151.333 115.667z"/>
<path style="fill:#caecf0; stroke:none;" d="M225 117L225 118L231 118L225 117M267 117L267 118L272 118L267 117M423 117L423 118L429 118L423 117M19 118L20 119L19 118M221 118L222 119L221 118z"/>
<path style="fill:#9bdce0; stroke:none;" d="M222 118L223 119L222 118z"/>
<path style="fill:#63c7ce; stroke:none;" d="M223 118L224 119L223 118z"/>
<path style="fill:#0dadb0; stroke:none;" d="M224 118.533C203.718 123.431 210.478 158.414 232 153.606C252.419 149.045 245.654 113.305 224 118.533z"/>
<path style="fill:#63c7ce; stroke:none;" d="M232 118L233 119L232 118z"/>
<path style="fill:#9bdce0; stroke:none;" d="M233 118L234 119L233 118z"/>
<path style="fill:#caecf0; stroke:none;" d="M234 118L235 119L234 118z"/>
<path style="fill:#9bdce0; stroke:none;" d="M264 118L265 119L264 118z"/>
<path style="fill:#63c7ce; stroke:none;" d="M265 118L266 119L265 118M273 118L274 119L273 118z"/>
<path style="fill:#9bdce0; stroke:none;" d="M274 118L275 119L274 118z"/>
<path style="fill:#63c7ce; stroke:none;" d="M368 118L368 119L377 119L368 118z"/>
<path style="fill:#caecf0; stroke:none;" d="M377 118L377 141L378 141L377 118M389 118L389 143L390 143L389 118z"/>
<path style="fill:#63c7ce; stroke:none;" d="M390 118L390 119L399 119L390 118z"/>
<path style="fill:#9bdce0; stroke:none;" d="M406 118L406 154L407 154C407 143.613 410.011 127.56 406 118z"/>
<path style="fill:#63c7ce; stroke:none;" d="M407 118L407 119L415 119L407 118z"/>
<path style="fill:#caecf0; stroke:none;" d="M420 118L421 119L420 118z"/>
<path style="fill:#9bdce0; stroke:none;" d="M421 118L422 119L421 118z"/>
<path style="fill:#63c7ce; stroke:none;" d="M422 118L423 119L422 118z"/>
<path style="fill:#0dadb0; stroke:none;" d="M415 123L415 119L407 119L407 153L415 153C415 146.294 413.134 136.323 415.603 130.044C417.366 125.562 423.848 123.435 427.258 127.434C431.627 132.558 429 146.581 429 153L438 153C438 142.201 441.238 111.014 421.005 119.224C418.763 120.133 416.918 121.567 415 123z"/>
<path style="fill:#63c7ce; stroke:none;" d="M429.667 118.333L430.333 118.667L429.667 118.333z"/>
<path style="fill:#caecf0; stroke:none;" d="M431 118L432 119L431 118M444 118L444 125L445 125L444 118z"/>
<path style="fill:#63c7ce; stroke:none;" d="M445 118L445 119L453 119L445 118M462 118L462 119L475 119L462 118z"/>
<path style="fill:#caecf0; stroke:none;" d="M475 118L475 125L476 125L475 118z"/>
<path style="fill:#9bdce0; stroke:none;" d="M19.3333 119.667L19.6667 120.333L19.3333 119.667z"/>
<path style="fill:#caecf0; stroke:none;" d="M152 119L153 120L152 119M219 119L220 120L219 119z"/>
<path style="fill:#63c7ce; stroke:none;" d="M220 119L221 120L220 119M235 119L236 120L235 119z"/>
<path style="fill:#caecf0; stroke:none;" d="M236 119L237 120L236 119M262 119L263 120L262 119z"/>
<path style="fill:#63c7ce; stroke:none;" d="M263 119L264 120L263 119M275 119L276 120L275 119z"/>
<path style="fill:#9bdce0; stroke:none;" d="M276 119L277 120L276 119z"/>
<path style="fill:#0dadb0; stroke:none;" d="M368 119C368 129.046 364.839 160.25 383.998 153.262C386.535 152.337 388.755 150.458 391 149L391 153L399 153L399 119L390 119C390 126.048 391.547 135.169 389.566 141.956C388.348 146.131 383.005 148.473 379.434 145.396C374.185 140.872 377 125.352 377 119L368 119z"/>
<path style="fill:#caecf0; stroke:none;" d="M418 119L417 121L418 119z"/>
<path style="fill:#63c7ce; stroke:none;" d="M419 119L420 120L419 119M432 119L434 121L432 119z"/>
<path style="fill:#caecf0; stroke:none;" d="M433 119L434 120L433 119z"/>
<path style="fill:#9bdce0; stroke:none;" d="M152.333 120.667L152.667 121.333L152.333 120.667M218 120L219 121L218 120z"/>
<path style="fill:#63c7ce; stroke:none;" d="M237 120L238 121L237 120z"/>
<path style="fill:#9bdce0; stroke:none;" d="M261 120L262 121L261 120z"/>
<path style="fill:#63c7ce; stroke:none;" d="M277 120L278 121L277 120z"/>
<path style="fill:#caecf0; stroke:none;" d="M415.333 120.667L415.667 121.333L415.333 120.667z"/>
<path style="fill:#63c7ce; stroke:none;" d="M418 120L419 121L418 120z"/>
<path style="fill:#9bdce0; stroke:none;" d="M434 120L435 121L434 120z"/>
<path style="fill:#63c7ce; stroke:none;" d="M19 121L19 137L20 137L19 121M217 121L218 122L217 121M238 121L241 124L238 121z"/>
<path style="fill:#caecf0; stroke:none;" d="M239 121L240 122L239 121z"/>
<path style="fill:#63c7ce; stroke:none;" d="M278 121L279 122L278 121z"/>
<path style="fill:#9bdce0; stroke:none;" d="M416 121L417 122L416 121z"/>
<path style="fill:#caecf0; stroke:none;" d="M435 121L436 122L435 121z"/>
<path style="fill:#63c7ce; stroke:none;" d="M152 122L152 135L153 135L152 122z"/>
<path style="fill:#caecf0; stroke:none;" d="M215 122L216 123L215 122z"/>
<path style="fill:#63c7ce; stroke:none;" d="M216 122L217 123L216 122z"/>
<path style="fill:#caecf0; stroke:none;" d="M240 122L241 123L240 122z"/>
<path style="fill:#63c7ce; stroke:none;" d="M279 122L280 123L279 122z"/>
<path style="fill:#9bdce0; stroke:none;" d="M415 122L416 123L415 122z"/>
<path style="fill:#63c7ce; stroke:none;" d="M435 122L436 123L435 122M215 123L216 124L215 123z"/>
<path style="fill:#caecf0; stroke:none;" d="M280 123L281 124L280 123z"/>
<path style="fill:#9bdce0; stroke:none;" d="M436 123L437 124L436 123M214 124L215 125L214 124z"/>
<path style="fill:#63c7ce; stroke:none;" d="M241 124L242 125L241 124M280 124L281 125L280 124M436 124L437 125L436 124z"/>
<path style="fill:#caecf0; stroke:none;" d="M213 125L214 126L213 125z"/>
<path style="fill:#63c7ce; stroke:none;" d="M225 125L226 126L225 125z"/>
<path style="fill:#9bdce0; stroke:none;" d="M226 125L227 126L226 125z"/>
<path style="fill:#caecf0; stroke:none;" d="M227.667 125.333L228.333 125.667L227.667 125.333z"/>
<path style="fill:#9bdce0; stroke:none;" d="M229 125L230 126L229 125z"/>
<path style="fill:#63c7ce; stroke:none;" d="M230 125L231 126L230 125z"/>
<path style="fill:#9bdce0; stroke:none;" d="M242 125L243 126L242 125z"/>
<path style="fill:#63c7ce; stroke:none;" d="M264 125L265 126L264 125z"/>
<path style="fill:#9bdce0; stroke:none;" d="M265 125L266 126L265 125z"/>
<path style="fill:#caecf0; stroke:none;" d="M266.667 125.333L267.333 125.667L266.667 125.333z"/>
<path style="fill:#9bdce0; stroke:none;" d="M268 125L269 126L268 125z"/>
<path style="fill:#63c7ce; stroke:none;" d="M269 125L270 126L269 125z"/>
<path style="fill:#9bdce0; stroke:none;" d="M281 125L282 126L281 125M338 125L338 126L351 126L338 125z"/>
<path style="fill:#63c7ce; stroke:none;" d="M419 125L420 126L419 125z"/>
<path style="fill:#9bdce0; stroke:none;" d="M420 125L421 126L420 125z"/>
<path style="fill:#caecf0; stroke:none;" d="M421 125L421 126L424 126L421 125z"/>
<path style="fill:#9bdce0; stroke:none;" d="M424 125L425 126L424 125z"/>
<path style="fill:#63c7ce; stroke:none;" d="M425 125L426 126L425 125z"/>
<path style="fill:#caecf0; stroke:none;" d="M437 125L438 126L437 125M445 125L445 126L452 126L452 143C455.223 135.319 454.454 125.112 445 125z"/>
<path style="fill:#9bdce0; stroke:none;" d="M452 125L453 126L452 125z"/>
<path style="fill:#caecf0; stroke:none;" d="M462 125L462 126L475 126L462 125z"/>
<path style="fill:#63c7ce; stroke:none;" d="M213 126L214 127L213 126M223 126L222 128L223 126z"/>
<path style="fill:#caecf0; stroke:none;" d="M224 126L223 128L224 126z"/>
<path style="fill:#ffffff; stroke:none;" d="M225.133 127.032C217.623 131.24 220.875 150.665 230.867 145.642C238.669 141.719 235.198 121.391 225.133 127.032z"/>
<path style="fill:#caecf0; stroke:none;" d="M231 126L232 127L231 126z"/>
<path style="fill:#63c7ce; stroke:none;" d="M232 126L233 127L232 126M242 126L243 127L242 126M262 126L261 128L262 126z"/>
<path style="fill:#caecf0; stroke:none;" d="M263 126L264 127L263 126z"/>
<path style="fill:#ffffff; stroke:none;" d="M264.228 126.746C257.668 129.705 259.512 149.918 269.772 145.396C277.34 142.06 274.444 122.139 264.228 126.746z"/>
<path style="fill:#caecf0; stroke:none;" d="M270 126L271 127L270 126z"/>
<path style="fill:#63c7ce; stroke:none;" d="M271 126L272 127L271 126M281 126L282 127L281 126M417 126L418 127L417 126z"/>
<path style="fill:#caecf0; stroke:none;" d="M418 126L419 127L418 126M426 126L428 128L426 126z"/>
<path style="fill:#63c7ce; stroke:none;" d="M427 126L428 127L427 126z"/>
<path style="fill:#9bdce0; stroke:none;" d="M437 126L438 127L437 126z"/>
<path style="fill:#caecf0; stroke:none;" d="M212 127L213 128L212 127z"/>
<path style="fill:#63c7ce; stroke:none;" d="M233 127L234 128L233 127z"/>
<path style="fill:#caecf0; stroke:none;" d="M243 127L244 128L243 127z"/>
<path style="fill:#63c7ce; stroke:none;" d="M272 127L273 128L272 127z"/>
<path style="fill:#caecf0; stroke:none;" d="M282 127L283 128L282 127z"/>
<path style="fill:#63c7ce; stroke:none;" d="M416 127L417 128L416 127M437.333 127.667L437.667 128.333L437.333 127.667z"/>
<path style="fill:#9bdce0; stroke:none;" d="M212 128L213 129L212 128M222 128L223 129L222 128z"/>
<path style="fill:#caecf0; stroke:none;" d="M233 128L234 129L233 128z"/>
<path style="fill:#63c7ce; stroke:none;" d="M243 128L244 129L243 128z"/>
<path style="fill:#caecf0; stroke:none;" d="M261 128L262 129L261 128z"/>
<path style="fill:#9bdce0; stroke:none;" d="M272 128L273 129L272 128M282 128L283 129L282 128z"/>
<path style="fill:#63c7ce; stroke:none;" d="M415 128L415 153L407 153L407 154C418.676 153.959 418.862 137.204 415 128M428 128L429 129L428 128M212 129L213 130L212 129M221 129L222 130L221 129M234 129L235 130L234 129M260 129L260 143L261 143L260 129M273 129L274 130L273 129M282.333 129.667L282.667 130.333L282.333 129.667z"/>
<path style="fill:#9bdce0; stroke:none;" d="M428 129L429 130L428 129M221 130L222 131L221 130z"/>
<path style="fill:#caecf0; stroke:none;" d="M234 130L235 131L234 130M244 130L245 131L244 130z"/>
<path style="fill:#9bdce0; stroke:none;" d="M273.333 130.667L273.667 131.333L273.333 130.667z"/>
<path style="fill:#caecf0; stroke:none;" d="M428 130L428 154L429 154L428 130M211 131L212 132L211 131M221 131L222 132L221 131z"/>
<path style="fill:#9bdce0; stroke:none;" d="M244.333 131.667L244.667 132.333L244.333 131.667z"/>
<path style="fill:#caecf0; stroke:none;" d="M438 131L438 154L439 154L438 131z"/>
<path style="fill:#9bdce0; stroke:none;" d="M211.333 132.667L211.667 133.333L211.333 132.667z"/>
<path style="fill:#63c7ce; stroke:none;" d="M235.333 132.667L235.667 133.333L235.333 132.667z"/>
<path style="fill:#caecf0; stroke:none;" d="M273 132L274 133L273 132M283 132L283 140L284 140L283 132z"/>
<path style="fill:#63c7ce; stroke:none;" d="M220 133L220 140L221 140L220 133M244 133L244 139L245 139L244 133z"/>
<path style="fill:#caecf0; stroke:none;" d="M338 133L338 134L350 134L350 154C351.556 150.292 352.948 136.84 349.397 134.028C346.777 131.953 341.145 133 338 133z"/>
<path style="fill:#9bdce0; stroke:none;" d="M350 133L351 134L350 133z"/>
<path style="fill:#63c7ce; stroke:none;" d="M211 134L211 138L212 138L211 134z"/>
<path style="fill:#9bdce0; stroke:none;" d="M235 134L235 138L236 138L235 134M152.333 135.667L152.667 136.333L152.333 135.667M19 137L20 138L19 137z"/>
<path style="fill:#caecf0; stroke:none;" d="M152 137L153 138L152 137M19 138L20 139L19 138z"/>
<path style="fill:#9bdce0; stroke:none;" d="M211.333 138.667L211.667 139.333L211.333 138.667z"/>
<path style="fill:#63c7ce; stroke:none;" d="M235 138L235 141L236 141L235 138z"/>
<path style="fill:#caecf0; stroke:none;" d="M172.333 139.667L172.667 140.333L172.333 139.667z"/>
<path style="fill:#9bdce0; stroke:none;" d="M173 139L173 140L182 140L173 139z"/>
<path style="fill:#caecf0; stroke:none;" d="M182.333 139.667L182.667 140.333L182.333 139.667z"/>
<path style="fill:#9bdce0; stroke:none;" d="M244.333 139.667L244.667 140.333L244.333 139.667z"/>
<path style="fill:#caecf0; stroke:none;" d="M273.333 139.667L273.667 140.333L273.333 139.667z"/>
<path style="fill:#63c7ce; stroke:none;" d="M151 140L152 141L151 140z"/>
<path style="fill:#caecf0; stroke:none;" d="M211.333 140.667L211.667 141.333L211.333 140.667z"/>
<path style="fill:#63c7ce; stroke:none;" d="M20.3333 141.667L20.6667 142.333L20.3333 141.667z"/>
<path style="fill:#9bdce0; stroke:none;" d="M151 141L152 142L151 141M182.333 141.667L182.667 142.333L182.333 141.667M195 141L196 142L195 141M221 141L222 142L221 141z"/>
<path style="fill:#caecf0; stroke:none;" d="M234 141L235 142L234 141M244 141L245 142L244 141z"/>
<path style="fill:#9bdce0; stroke:none;" d="M273 141L274 142L273 141M377.333 141.667L377.667 142.333L377.333 141.667z"/>
<path style="fill:#caecf0; stroke:none;" d="M462.333 141.667L462.667 142.333L462.333 141.667M151 142L152 143L151 142z"/>
<path style="fill:#63c7ce; stroke:none;" d="M195 142L196 143L195 142M204 142L205 143L204 142M212 142L213 143L212 142M221 142L222 143L221 142z"/>
<path style="fill:#9bdce0; stroke:none;" d="M234 142L235 143L234 142z"/>
<path style="fill:#63c7ce; stroke:none;" d="M273 142L274 143L273 142M282 142L283 143L282 142M368.333 142.667L368.667 143.333L368.333 142.667z"/>
<path style="fill:#9bdce0; stroke:none;" d="M20 143L21 144L20 143z"/>
<path style="fill:#63c7ce; stroke:none;" d="M173 143L174 144L173 143M182 143L183 144L182 143z"/>
<path style="fill:#9bdce0; stroke:none;" d="M194 143L195 144L194 143M204 143L205 144L204 143M212 143L213 144L212 143z"/>
<path style="fill:#caecf0; stroke:none;" d="M222 143L223 144L222 143z"/>
<path style="fill:#63c7ce; stroke:none;" d="M243 143L244 144L243 143z"/>
<path style="fill:#caecf0; stroke:none;" d="M261 143L262 144L261 143M272 143L273 144L272 143z"/>
<path style="fill:#9bdce0; stroke:none;" d="M282 143L283 144L282 143z"/>
<path style="fill:#63c7ce; stroke:none;" d="M377 143L378 144L377 143z"/>
<path style="fill:#9bdce0; stroke:none;" d="M389 143L390 144L389 143M462 143L463 144L462 143z"/>
<path style="fill:#caecf0; stroke:none;" d="M20 144L21 145L20 144z"/>
<path style="fill:#9bdce0; stroke:none;" d="M173 144L174 145L173 144M183 144L184 145L183 144z"/>
<path style="fill:#63c7ce; stroke:none;" d="M194 144L195 145L194 144z"/>
<path style="fill:#caecf0; stroke:none;" d="M204 144L205 145L204 144M212 144L213 145L212 144z"/>
<path style="fill:#63c7ce; stroke:none;" d="M222 144L223 145L222 144M233 144L234 145L233 144z"/>
<path style="fill:#9bdce0; stroke:none;" d="M243 144L244 145L243 144z"/>
<path style="fill:#63c7ce; stroke:none;" d="M261 144L262 145L261 144M272 144L273 145L272 144z"/>
<path style="fill:#caecf0; stroke:none;" d="M282 144L283 145L282 144z"/>
<path style="fill:#9bdce0; stroke:none;" d="M368.333 144.667L368.667 145.333L368.333 144.667z"/>
<path style="fill:#caecf0; stroke:none;" d="M378 144L379 145L378 144M388 144L389 145L388 144z"/>
<path style="fill:#63c7ce; stroke:none;" d="M462 144L465 147L462 144z"/>
<path style="fill:#caecf0; stroke:none;" d="M463 144L464 145L463 144z"/>
<path style="fill:#9bdce0; stroke:none;" d="M150 145L151 146L150 145z"/>
<path style="fill:#caecf0; stroke:none;" d="M173 145L174 146L173 145z"/>
<path style="fill:#9bdce0; stroke:none;" d="M184 145L185 146L184 145z"/>
<path style="fill:#caecf0; stroke:none;" d="M192 145L193 146L192 145z"/>
<path style="fill:#63c7ce; stroke:none;" d="M193 145L194 146L193 145M203 145L204 146L203 145M213 145L214 146L213 145M223 145L224 146L223 145M232 145L233 146L232 145M242 145L243 146L242 145M262 145L263 146L262 145z"/>
<path style="fill:#9bdce0; stroke:none;" d="M271 145L272 146L271 145z"/>
<path style="fill:#63c7ce; stroke:none;" d="M281 145L282 146L281 145M378 145L379 146L378 145z"/>
<path style="fill:#9bdce0; stroke:none;" d="M387 145L388 146L387 145z"/>
<path style="fill:#63c7ce; stroke:none;" d="M388 145L389 146L388 145M453 145L454 146L453 145z"/>
<path style="fill:#caecf0; stroke:none;" d="M464 145L465 146L464 145z"/>
<path style="fill:#63c7ce; stroke:none;" d="M21 146L22 147L21 146z"/>
<path style="fill:#caecf0; stroke:none;" d="M150 146L151 147L150 146z"/>
<path style="fill:#63c7ce; stroke:none;" d="M174 146L175 147L174 146M185 146L186 147L185 146z"/>
<path style="fill:#9bdce0; stroke:none;" d="M186 146L187 147L186 146z"/>
<path style="fill:#caecf0; stroke:none;" d="M187 146L187 147L190 147L187 146z"/>
<path style="fill:#9bdce0; stroke:none;" d="M190.667 146.333L191.333 146.667L190.667 146.333M203 146L204 147L203 146z"/>
<path style="fill:#caecf0; stroke:none;" d="M213 146L214 147L213 146z"/>
<path style="fill:#63c7ce; stroke:none;" d="M224 146L225 147L224 146z"/>
<path style="fill:#9bdce0; stroke:none;" d="M225 146L226 147L225 146z"/>
<path style="fill:#caecf0; stroke:none;" d="M226 146L227 147L226 146M229 146L230 147L229 146z"/>
<path style="fill:#9bdce0; stroke:none;" d="M230 146L231 147L230 146z"/>
<path style="fill:#63c7ce; stroke:none;" d="M231 146L232 147L231 146z"/>
<path style="fill:#9bdce0; stroke:none;" d="M242 146L243 147L242 146z"/>
<path style="fill:#63c7ce; stroke:none;" d="M263 146L264 147L263 146z"/>
<path style="fill:#9bdce0; stroke:none;" d="M264 146L265 147L264 146z"/>
<path style="fill:#caecf0; stroke:none;" d="M265 146L265 147L269 147L265 146z"/>
<path style="fill:#9bdce0; stroke:none;" d="M269 146L270 147L269 146z"/>
<path style="fill:#63c7ce; stroke:none;" d="M270 146L271 147L270 146z"/>
<path style="fill:#9bdce0; stroke:none;" d="M281 146L282 147L281 146z"/>
<path style="fill:#caecf0; stroke:none;" d="M368 146L369 147L368 146z"/>
<path style="fill:#63c7ce; stroke:none;" d="M379 146L380 147L379 146z"/>
<path style="fill:#9bdce0; stroke:none;" d="M380 146L381 147L380 146z"/>
<path style="fill:#caecf0; stroke:none;" d="M381 146L381 147L385 147L381 146z"/>
<path style="fill:#9bdce0; stroke:none;" d="M385 146L386 147L385 146z"/>
<path style="fill:#63c7ce; stroke:none;" d="M386 146L387 147L386 146z"/>
<path style="fill:#9bdce0; stroke:none;" d="M453 146L454 147L453 146M465.667 146.333L466.333 146.667L465.667 146.333z"/>
<path style="fill:#caecf0; stroke:none;" d="M467 146L467 147L471 147L467 146z"/>
<path style="fill:#9bdce0; stroke:none;" d="M471.667 146.333L472.333 146.667L471.667 146.333z"/>
<path style="fill:#63c7ce; stroke:none;" d="M473.667 146.333L474.333 146.667L473.667 146.333z"/>
<path style="fill:#caecf0; stroke:none;" d="M21 147L22 148L21 147M97 147L97 155L98 155L97 147M174 147L175 148L174 147z"/>
<path style="fill:#63c7ce; stroke:none;" d="M202 147L201 149L202 147M214 147L215 148L214 147M241 147L242 148L241 147M280 147L281 148L280 147z"/>
<path style="fill:#caecf0; stroke:none;" d="M281 147L282 148L281 147z"/>
<path style="fill:#9bdce0; stroke:none;" d="M369 147L370 148L369 147z"/>
<path style="fill:#caecf0; stroke:none;" d="M453 147L454 148L453 147z"/>
<path style="fill:#63c7ce; stroke:none;" d="M149 148L150 149L149 148M175 148L176 149L175 148z"/>
<path style="fill:#caecf0; stroke:none;" d="M202 148L203 149L202 148z"/>
<path style="fill:#63c7ce; stroke:none;" d="M215 148L219 152L215 148z"/>
<path style="fill:#caecf0; stroke:none;" d="M241 148L242 149L241 148z"/>
<path style="fill:#9bdce0; stroke:none;" d="M280 148L281 149L280 148z"/>
<path style="fill:#caecf0; stroke:none;" d="M369 148L370 149L369 148z"/>
<path style="fill:#63c7ce; stroke:none;" d="M454 148L455 149L454 148z"/>
<path style="fill:#caecf0; stroke:none;" d="M476 148L477 149L476 148z"/>
<path style="fill:#63c7ce; stroke:none;" d="M22 149L23 150L22 149z"/>
<path style="fill:#caecf0; stroke:none;" d="M149 149L150 150L149 149z"/>
<path style="fill:#63c7ce; stroke:none;" d="M176 149L178 151L176 149z"/>
<path style="fill:#caecf0; stroke:none;" d="M201 149L202 150L201 149M215 149L216 150L215 149z"/>
<path style="fill:#9bdce0; stroke:none;" d="M240 149L241 150L240 149z"/>
<path style="fill:#63c7ce; stroke:none;" d="M279 149L280 150L279 149M370 149L371 150L370 149M389 149L391 151L391 149L389 149z"/>
<path style="fill:#caecf0; stroke:none;" d="M454 149L455 150L454 149z"/>
<path style="fill:#9bdce0; stroke:none;" d="M476.333 149.667L476.667 150.333L476.333 149.667M22 150L23 151L22 150z"/>
<path style="fill:#caecf0; stroke:none;" d="M176 150L177 151L176 150z"/>
<path style="fill:#63c7ce; stroke:none;" d="M199 150L198 152L199 150z"/>
<path style="fill:#caecf0; stroke:none;" d="M200 150L201 151L200 150M216 150L217 151L216 150z"/>
<path style="fill:#63c7ce; stroke:none;" d="M238 150L237 152L238 150z"/>
<path style="fill:#9bdce0; stroke:none;" d="M239 150L240 151L239 150z"/>
<path style="fill:#63c7ce; stroke:none;" d="M260 150L261 151L260 150M278 150L277 152L278 150M371 150L373 152L371 150M388 150L387 152L388 150z"/>
<path style="fill:#9bdce0; stroke:none;" d="M455 150L456 151L455 150z"/>
<path style="fill:#63c7ce; stroke:none;" d="M148 151L149 152L148 151M178 151L179 152L178 151z"/>
<path style="fill:#caecf0; stroke:none;" d="M199 151L200 152L199 151M217 151L218 152L217 151M238 151L239 152L238 151M260 151L261 152L260 151z"/>
<path style="fill:#9bdce0; stroke:none;" d="M261 151L262 152L261 151z"/>
<path style="fill:#caecf0; stroke:none;" d="M278 151L279 152L278 151M371 151L372 152L371 151M388 151L389 152L388 151z"/>
<path style="fill:#9bdce0; stroke:none;" d="M390 151L390 154L391 154L390 151M456 151L457 152L456 151z"/>
<path style="fill:#63c7ce; stroke:none;" d="M476 151L475 153L476 151M23 152L24 153L23 152z"/>
<path style="fill:#9bdce0; stroke:none;" d="M148 152L149 153L148 152z"/>
<path style="fill:#caecf0; stroke:none;" d="M179 152L180 153L179 152z"/>
<path style="fill:#63c7ce; stroke:none;" d="M180 152L181 153L180 152M196 152L197 153L196 152z"/>
<path style="fill:#9bdce0; stroke:none;" d="M197 152L198 153L197 152M219 152L220 153L219 152z"/>
<path style="fill:#63c7ce; stroke:none;" d="M220 152L221 153L220 152M235 152L236 153L235 152z"/>
<path style="fill:#9bdce0; stroke:none;" d="M236 152L237 153L236 152M262 152L263 153L262 152z"/>
<path style="fill:#63c7ce; stroke:none;" d="M263 152L264 153L263 152z"/>
<path style="fill:#9bdce0; stroke:none;" d="M276 152L277 153L276 152z"/>
<path style="fill:#63c7ce; stroke:none;" d="M373 152L374 153L373 152M386 152L387 153L386 152z"/>
<path style="fill:#caecf0; stroke:none;" d="M457 152L458 153L457 152z"/>
<path style="fill:#63c7ce; stroke:none;" d="M458 152L459 153L458 152z"/>
<path style="fill:#caecf0; stroke:none;" d="M476 152L477 153L476 152z"/>
<path style="fill:#9bdce0; stroke:none;" d="M23 153L24 154L23 153z"/>
<path style="fill:#63c7ce; stroke:none;" d="M92.3333 153.667L92.6667 154.333L92.3333 153.667z"/>
<path style="fill:#caecf0; stroke:none;" d="M181 153L182 154L181 153z"/>
<path style="fill:#9bdce0; stroke:none;" d="M182 153L183 154L182 153z"/>
<path style="fill:#63c7ce; stroke:none;" d="M183 153L184 154L183 153M193 153L194 154L193 153z"/>
<path style="fill:#9bdce0; stroke:none;" d="M194 153L195 154L194 153z"/>
<path style="fill:#caecf0; stroke:none;" d="M195 153L196 154L195 153z"/>
<path style="fill:#9bdce0; stroke:none;" d="M221 153L222 154L221 153z"/>
<path style="fill:#63c7ce; stroke:none;" d="M222.667 153.333L223.333 153.667L222.667 153.333M233 153L234 154L233 153z"/>
<path style="fill:#9bdce0; stroke:none;" d="M234 153L235 154L234 153z"/>
<path style="fill:#63c7ce; stroke:none;" d="M252 153L252 154L260 154L252 153z"/>
<path style="fill:#9bdce0; stroke:none;" d="M264 153L265 154L264 153z"/>
<path style="fill:#63c7ce; stroke:none;" d="M265 153L266 154L265 153M273 153L274 154L273 153z"/>
<path style="fill:#9bdce0; stroke:none;" d="M274 153L275 154L274 153z"/>
<path style="fill:#caecf0; stroke:none;" d="M275 153L276 154L275 153z"/>
<path style="fill:#9bdce0; stroke:none;" d="M328 153L329 154L328 153M337 153L338 154L337 153z"/>
<path style="fill:#63c7ce; stroke:none;" d="M351 153L351 154L360 154L351 153z"/>
<path style="fill:#caecf0; stroke:none;" d="M374 153L375 154L374 153z"/>
<path style="fill:#63c7ce; stroke:none;" d="M375 153L376 154L375 153z"/>
<path style="fill:#9bdce0; stroke:none;" d="M384 153L385 154L384 153z"/>
<path style="fill:#caecf0; stroke:none;" d="M385 153L386 154L385 153z"/>
<path style="fill:#63c7ce; stroke:none;" d="M391 153L391 154L399 154L391 153z"/>
<path style="fill:#9bdce0; stroke:none;" d="M415 153L416 154L415 153z"/>
<path style="fill:#63c7ce; stroke:none;" d="M429 153L429 154L438 154L429 153z"/>
<path style="fill:#9bdce0; stroke:none;" d="M459 153L460 154L459 153z"/>
<path style="fill:#63c7ce; stroke:none;" d="M460 153L461 154L460 153M472 153L473 154L472 153z"/>
<path style="fill:#9bdce0; stroke:none;" d="M473 153L474 154L473 153z"/>
<path style="fill:#caecf0; stroke:none;" d="M474 153L475 154L474 153z"/>
<path style="fill:#9bdce0; stroke:none;" d="M147 154L148 155L147 154z"/>
<path style="fill:#caecf0; stroke:none;" d="M185.667 154.333L186.333 154.667L185.667 154.333z"/>
<path style="fill:#9bdce0; stroke:none;" d="M187 154L187 155L191 155L187 154z"/>
<path style="fill:#caecf0; stroke:none;" d="M191.667 154.333L192.333 154.667L191.667 154.333M224.667 154.333L225.333 154.667L224.667 154.333z"/>
<path style="fill:#9bdce0; stroke:none;" d="M226 154L226 155L230 155L226 154z"/>
<path style="fill:#caecf0; stroke:none;" d="M230.667 154.333L231.333 154.667L230.667 154.333M266.667 154.333L267.333 154.667L266.667 154.333z"/>
<path style="fill:#9bdce0; stroke:none;" d="M268 154L268 155L271 155L268 154z"/>
<path style="fill:#caecf0; stroke:none;" d="M271.667 154.333L272.333 154.667L271.667 154.333M377.667 154.333L378.333 154.667L377.667 154.333z"/>
<path style="fill:#9bdce0; stroke:none;" d="M379 154L379 155L382 155L379 154z"/>
<path style="fill:#caecf0; stroke:none;" d="M382 154L383 155L382 154M462.667 154.333L463.333 154.667L462.667 154.333z"/>
<path style="fill:#9bdce0; stroke:none;" d="M464 154L464 155L468 155L464 154z"/>
<path style="fill:#caecf0; stroke:none;" d="M468.667 154.333L469.333 154.667L468.667 154.333z"/>
<path style="fill:#9bdce0; stroke:none;" d="M24 155L25 156L24 155M92 155L93 156L92 155M97 155L98 156L97 155z"/>
<path style="fill:#caecf0; stroke:none;" d="M92 156L93 157L92 156z"/>
<path style="fill:#63c7ce; stroke:none;" d="M97.3333 156.667L97.6667 157.333L97.3333 156.667M146 156L147 157L146 156z"/>
<path style="fill:#9bdce0; stroke:none;" d="M25 157L26 158L25 157z"/>
<path style="fill:#63c7ce; stroke:none;" d="M91 158L92 159L91 158M145 158L146 159L145 158z"/>
<path style="fill:#9bdce0; stroke:none;" d="M26 159L27 160L26 159M91 159L92 160L91 159M96 159L97 160L96 159z"/>
<path style="fill:#caecf0; stroke:none;" d="M145 159L146 160L145 159z"/>
<path style="fill:#63c7ce; stroke:none;" d="M27 160L28 161L27 160M96 160L97 161L96 160M144 160L145 161L144 160z"/>
<path style="fill:#caecf0; stroke:none;" d="M27 161L28 162L27 161z"/>
<path style="fill:#9bdce0; stroke:none;" d="M90 161L91 162L90 161z"/>
<path style="fill:#caecf0; stroke:none;" d="M144 161L145 162L144 161z"/>
<path style="fill:#63c7ce; stroke:none;" d="M28 162L29 163L28 162z"/>
<path style="fill:#9bdce0; stroke:none;" d="M95 162L96 163L95 162z"/>
<path style="fill:#63c7ce; stroke:none;" d="M143 162L144 163L143 162z"/>
<path style="fill:#9bdce0; stroke:none;" d="M89 163L90 164L89 163M29 164L30 165L29 164z"/>
<path style="fill:#63c7ce; stroke:none;" d="M88 164L89 165L88 164z"/>
<path style="fill:#9bdce0; stroke:none;" d="M94 164L95 165L94 164z"/>
<path style="fill:#caecf0; stroke:none;" d="M142 164L143 165L142 164z"/>
<path style="fill:#63c7ce; stroke:none;" d="M30 165L31 166L30 165M141 165L142 166L141 165z"/>
<path style="fill:#caecf0; stroke:none;" d="M87 166L88 167L87 166z"/>
<path style="fill:#63c7ce; stroke:none;" d="M93 166L94 167L93 166z"/>
<path style="fill:#9bdce0; stroke:none;" d="M31 167L32 168L31 167z"/>
<path style="fill:#caecf0; stroke:none;" d="M86 167L87 168L86 167M92 167L93 168L92 167z"/>
<path style="fill:#9bdce0; stroke:none;" d="M140 167L141 168L140 167z"/>
<path style="fill:#63c7ce; stroke:none;" d="M32 168L33 169L32 168M84 168L85 169L84 168M139 168L140 169L139 168z"/>
<path style="fill:#9bdce0; stroke:none;" d="M83 169L84 170L83 169z"/>
<path style="fill:#caecf0; stroke:none;" d="M33 170L34 171L33 170z"/>
<path style="fill:#63c7ce; stroke:none;" d="M80 170L81 171L80 170z"/>
<path style="fill:#9bdce0; stroke:none;" d="M81 170L82 171L81 170z"/>
<path style="fill:#63c7ce; stroke:none;" d="M90 170L91 171L90 170z"/>
<path style="fill:#9bdce0; stroke:none;" d="M34 171L35 172L34 171z"/>
<path style="fill:#63c7ce; stroke:none;" d="M76.6667 171.333L77.3333 171.667L76.6667 171.333z"/>
<path style="fill:#9bdce0; stroke:none;" d="M78 171L79 172L78 171z"/>
<path style="fill:#63c7ce; stroke:none;" d="M89 171L90 172L89 171z"/>
<path style="fill:#caecf0; stroke:none;" d="M137 171L138 172L137 171z"/>
<path style="fill:#9bdce0; stroke:none;" d="M35 172L36 173L35 172z"/>
<path style="fill:#caecf0; stroke:none;" d="M74 172L75 173L74 172M87 172L88 173L87 172M136 172L137 173L136 172z"/>
<path style="fill:#63c7ce; stroke:none;" d="M36 173L37 174L36 173M86 173L87 174L86 173z"/>
<path style="fill:#9bdce0; stroke:none;" d="M135 173L136 174L135 173z"/>
<path style="fill:#63c7ce; stroke:none;" d="M37 174L38 175L37 174z"/>
<path style="fill:#caecf0; stroke:none;" d="M83 174L84 175L83 174z"/>
<path style="fill:#63c7ce; stroke:none;" d="M84 174L85 175L84 174M134 174L135 175L134 174M38 175L39 176L38 175z"/>
<path style="fill:#caecf0; stroke:none;" d="M80 175L81 176L80 175z"/>
<path style="fill:#9bdce0; stroke:none;" d="M81 175L82 176L81 175z"/>
<path style="fill:#63c7ce; stroke:none;" d="M82 175L83 176L82 175M133 175L134 176L133 175z"/>
<path style="fill:#caecf0; stroke:none;" d="M74 176L74 177L77 177L74 176z"/>
<path style="fill:#9bdce0; stroke:none;" d="M77 176L78 177L77 176z"/>
<path style="fill:#63c7ce; stroke:none;" d="M78 176L79 177L78 176z"/>
<path style="fill:#9bdce0; stroke:none;" d="M132 176L133 177L132 176z"/>
<path style="fill:#63c7ce; stroke:none;" d="M40 177L41 178L40 177z"/>
<path style="fill:#9bdce0; stroke:none;" d="M131 177L132 178L131 177z"/>
<path style="fill:#63c7ce; stroke:none;" d="M41 178L42 179L41 178z"/>
<path style="fill:#caecf0; stroke:none;" d="M130 178L131 179L130 178z"/>
<path style="fill:#9bdce0; stroke:none;" d="M42 179L43 180L42 179z"/>
<path style="fill:#caecf0; stroke:none;" d="M129 179L130 180L129 179z"/>
<path style="fill:#9bdce0; stroke:none;" d="M43 180L44 181L43 180z"/>
<path style="fill:#caecf0; stroke:none;" d="M44 181L45 182L44 181z"/>
<path style="fill:#63c7ce; stroke:none;" d="M126 181L127 182L126 181M46 182L47 183L46 182z"/>
<path style="fill:#caecf0; stroke:none;" d="M125 182L126 183L125 182z"/>
<path style="fill:#9bdce0; stroke:none;" d="M47 183L48 184L47 183z"/>
<path style="fill:#63c7ce; stroke:none;" d="M123 183L124 184L123 183M49 184L50 185L49 184z"/>
<path style="fill:#caecf0; stroke:none;" d="M122 184L123 185L122 184M50 185L51 186L50 185z"/>
<path style="fill:#63c7ce; stroke:none;" d="M120 185L121 186L120 185M52 186L53 187L52 186z"/>
<path style="fill:#caecf0; stroke:none;" d="M119 186L120 187L119 186M53 187L54 188L53 187z"/>
<path style="fill:#63c7ce; stroke:none;" d="M54 187L55 188L54 187z"/>
<path style="fill:#9bdce0; stroke:none;" d="M117 187L118 188L117 187z"/>
<path style="fill:#caecf0; stroke:none;" d="M55 188L56 189L55 188z"/>
<path style="fill:#63c7ce; stroke:none;" d="M56 188L57 189L56 188z"/>
<path style="fill:#9bdce0; stroke:none;" d="M115 188L116 189L115 188z"/>
<path style="fill:#63c7ce; stroke:none;" d="M58 189L59 190L58 189M113 189L114 190L113 189z"/>
<path style="fill:#9bdce0; stroke:none;" d="M60 190L61 191L60 190M111 190L112 191L111 190z"/>
<path style="fill:#caecf0; stroke:none;" d="M62 191L63 192L62 191z"/>
<path style="fill:#9bdce0; stroke:none;" d="M63 191L64 192L63 191z"/>
<path style="fill:#63c7ce; stroke:none;" d="M108 191L109 192L108 191z"/>
<path style="fill:#caecf0; stroke:none;" d="M109 191L110 192L109 191z"/>
<path style="fill:#9bdce0; stroke:none;" d="M66 192L67 193L66 192z"/>
<path style="fill:#63c7ce; stroke:none;" d="M67 192L68 193L67 192M104 192L105 193L104 192z"/>
<path style="fill:#9bdce0; stroke:none;" d="M105 192L106 193L105 192z"/>
<path style="fill:#caecf0; stroke:none;" d="M106 192L107 193L106 192z"/>
<path style="fill:#9bdce0; stroke:none;" d="M69 193L70 194L69 193z"/>
<path style="fill:#63c7ce; stroke:none;" d="M70 193L71 194L70 193M101 193L102 194L101 193z"/>
<path style="fill:#9bdce0; stroke:none;" d="M102 193L103 194L102 193z"/>
<path style="fill:#caecf0; stroke:none;" d="M73 194L74 195L73 194z"/>
<path style="fill:#9bdce0; stroke:none;" d="M74 194L75 195L74 194z"/>
<path style="fill:#63c7ce; stroke:none;" d="M75 194L76 195L75 194M95.6667 194.333L96.3333 194.667L95.6667 194.333z"/>
<path style="fill:#9bdce0; stroke:none;" d="M97 194L98 195L97 194z"/>
<path style="fill:#caecf0; stroke:none;" d="M98 194L99 195L98 194M79 195L79 196L93 196L79 195z"/>
</svg>
